<svg width="80" height="80" viewBox="0 0 80 80" fill="none" xmlns="http://www.w3.org/2000/svg">
<g clip-path="url(#clip0_87_706)">
<path d="M4.14453 72.8468V18.9867C4.14453 17.8038 4.8396 16.7314 5.91932 16.2483L38.7852 1.54353C39.5587 1.19744 40.4425 1.19464 41.2182 1.53583L74.0638 15.9825C75.1528 16.4615 75.8559 17.5389 75.8559 18.7286V72.8468H4.14453Z" stroke="#322F2F" stroke-width="2" stroke-miterlimit="10"/>
<path d="M32.0942 20.98H9.91406V27.4701H32.0942V20.98Z" stroke="#322F2F" stroke-width="2" stroke-miterlimit="10"/>
<path d="M70.0591 20.98H47.8789V27.4701H70.0591V20.98Z" stroke="#322F2F" stroke-width="2" stroke-miterlimit="10"/>
<path d="M79 73H1V79H79V73Z" stroke="#322F2F" stroke-width="2" stroke-miterlimit="10"/>
<path d="M70.0591 34.3677H9.91406V72.8741H70.0591V34.3677Z" stroke="#322F2F" stroke-width="2" stroke-miterlimit="10"/>
<g clip-path="url(#clip1_87_706)">
<path d="M17.038 73.5692C16.5685 73.5692 16.1943 73.1974 16.1943 72.7309V56.7663C16.1943 56.2998 16.5685 55.928 17.038 55.928C17.5076 55.928 17.8817 56.2998 17.8817 56.7663V72.7309C17.8817 73.1974 17.5076 73.5692 17.038 73.5692Z" fill="#322F2F"/>
<path d="M30.4267 73.5692C29.9572 73.5692 29.583 73.1974 29.583 72.7309V56.7663C29.583 56.2998 29.9572 55.928 30.4267 55.928C30.8962 55.928 31.2704 56.2998 31.2704 56.7663V72.7309C31.2704 73.1974 30.8962 73.5692 30.4267 73.5692Z" fill="#322F2F"/>
<path d="M30.9401 57.532H17.3311V57.9694H30.9401V57.532Z" fill="#322F2F"/>
<path d="M29.9135 71.2732H17.3682V71.7106H29.9135V71.2732Z" fill="#322F2F"/>
<path d="M19.0558 57.5957L17.0391 67.3718L17.4703 67.4597L19.487 57.6836L19.0558 57.5957Z" fill="#322F2F"/>
<path d="M21.0512 57.5966L18.2109 71.3645L18.6421 71.4523L21.4824 57.6844L21.0512 57.5966Z" fill="#322F2F"/>
<path d="M22.9272 57.5941L20.0869 71.3621L20.5181 71.4499L23.3584 57.6819L22.9272 57.5941Z" fill="#322F2F"/>
<path d="M24.6567 57.5917L21.8164 71.3596L22.2476 71.4474L25.0879 57.6795L24.6567 57.5917Z" fill="#322F2F"/>
<path d="M26.3842 57.5963L23.5439 71.3643L23.9752 71.4521L26.8154 57.6841L26.3842 57.5963Z" fill="#322F2F"/>
<path d="M28.4067 57.5939L25.5664 71.3618L25.9976 71.4496L28.8379 57.6817L28.4067 57.5939Z" fill="#322F2F"/>
<path d="M30.3559 57.5912L27.5156 71.3591L27.9468 71.447L30.7871 57.679L30.3559 57.5912Z" fill="#322F2F"/>
<path d="M19.1943 77.3454V76.908H27.191C27.2717 76.908 28.0567 76.857 28.0567 75.8947V75.8656C28.0567 75.8656 28.1081 75.4209 27.8367 75.1147C27.6386 74.8888 27.3084 74.7794 26.8536 74.7794H25.0928C25.0635 74.7794 24.3298 74.7867 23.8676 74.3347C23.6329 74.1015 23.5155 73.8026 23.5155 73.4381V71.499H23.9557V73.4381C23.9557 73.686 24.029 73.8755 24.1758 74.0213C24.4986 74.342 25.0855 74.3347 25.0855 74.342H26.8462C27.4331 74.342 27.8733 74.5097 28.1595 74.8304C28.5336 75.2532 28.4969 75.8073 28.4896 75.9093C28.4823 77.309 27.2057 77.3454 27.191 77.3454H19.1943Z" fill="#322F2F"/>
<path d="M14.9832 63.196H14.543V66.1703H14.9832V63.196Z" fill="#322F2F"/>
<path d="M32.8103 63.196H32.3701V66.1703H32.8103V63.196Z" fill="#322F2F"/>
</g>
<g clip-path="url(#clip2_87_706)">
<path d="M33.416 73.5692C32.9464 73.5692 32.5723 73.1974 32.5723 72.7309V56.7663C32.5723 56.2998 32.9464 55.928 33.416 55.928C33.8855 55.928 34.2596 56.2998 34.2596 56.7663V72.7309C34.2596 73.1974 33.8855 73.5692 33.416 73.5692Z" fill="#322F2F"/>
<path d="M46.8046 73.5692C46.3351 73.5692 45.9609 73.1974 45.9609 72.7309V56.7663C45.9609 56.2998 46.3351 55.928 46.8046 55.928C47.2742 55.928 47.6483 56.2998 47.6483 56.7663V72.7309C47.6483 73.1974 47.2742 73.5692 46.8046 73.5692Z" fill="#322F2F"/>
<path d="M47.3181 57.532H33.709V57.9694H47.3181V57.532Z" fill="#322F2F"/>
<path d="M46.2914 71.2732H33.7461V71.7106H46.2914V71.2732Z" fill="#322F2F"/>
<path d="M35.4337 57.5957L33.417 67.3718L33.8482 67.4597L35.8649 57.6836L35.4337 57.5957Z" fill="#322F2F"/>
<path d="M37.4291 57.5966L34.5889 71.3645L35.0201 71.4523L37.8603 57.6844L37.4291 57.5966Z" fill="#322F2F"/>
<path d="M39.3051 57.5941L36.4648 71.3621L36.896 71.4499L39.7363 57.6819L39.3051 57.5941Z" fill="#322F2F"/>
<path d="M41.0346 57.5917L38.1943 71.3596L38.6255 71.4474L41.4658 57.6795L41.0346 57.5917Z" fill="#322F2F"/>
<path d="M42.7621 57.5963L39.9219 71.3643L40.3531 71.4521L43.1933 57.6841L42.7621 57.5963Z" fill="#322F2F"/>
<path d="M44.7846 57.5939L41.9443 71.3618L42.3755 71.4496L45.2158 57.6817L44.7846 57.5939Z" fill="#322F2F"/>
<path d="M46.7338 57.5912L43.8936 71.3591L44.3248 71.447L47.165 57.679L46.7338 57.5912Z" fill="#322F2F"/>
<path d="M35.5723 77.3454V76.908H43.569C43.6497 76.908 44.4347 76.857 44.4347 75.8947V75.8656C44.4347 75.8656 44.486 75.4209 44.2146 75.1147C44.0165 74.8888 43.6864 74.7794 43.2315 74.7794H41.4708C41.4414 74.7794 40.7078 74.7867 40.2456 74.3347C40.0108 74.1015 39.8934 73.8026 39.8934 73.4381V71.499H40.3336V73.4381C40.3336 73.686 40.407 73.8755 40.5537 74.0213C40.8765 74.342 41.4634 74.3347 41.4634 74.342H43.2242C43.8111 74.342 44.2513 74.5097 44.5374 74.8304C44.9115 75.2532 44.8749 75.8073 44.8675 75.9093C44.8602 77.309 43.5836 77.3454 43.569 77.3454H35.5723Z" fill="#322F2F"/>
<path d="M31.3611 63.196H30.9209V66.1703H31.3611V63.196Z" fill="#322F2F"/>
<path d="M49.1882 63.196H48.748V66.1703H49.1882V63.196Z" fill="#322F2F"/>
</g>
<g clip-path="url(#clip3_87_706)">
<path d="M33.416 57.8214C32.9464 57.8214 32.5723 57.4496 32.5723 56.9831V41.0185C32.5723 40.552 32.9464 40.1802 33.416 40.1802C33.8855 40.1802 34.2596 40.552 34.2596 41.0185V56.9831C34.2596 57.4496 33.8855 57.8214 33.416 57.8214Z" fill="#B42F2D"/>
<path d="M46.8046 57.8214C46.3351 57.8214 45.9609 57.4496 45.9609 56.9831V41.0185C45.9609 40.552 46.3351 40.1802 46.8046 40.1802C47.2742 40.1802 47.6483 40.552 47.6483 41.0185V56.9831C47.6483 57.4496 47.2742 57.8214 46.8046 57.8214Z" fill="#B42F2D"/>
<path d="M47.3181 41.7839H33.709V42.2213H47.3181V41.7839Z" fill="#B42F2D"/>
<path d="M46.2914 55.5251H33.7461V55.9625H46.2914V55.5251Z" fill="#B42F2D"/>
<path d="M35.4337 41.8477L33.417 51.6238L33.8482 51.7116L35.8649 41.9355L35.4337 41.8477Z" fill="#B42F2D"/>
<path d="M37.4291 41.8485L34.5889 55.6165L35.0201 55.7043L37.8603 41.9363L37.4291 41.8485Z" fill="#B42F2D"/>
<path d="M39.3051 41.8461L36.4648 55.614L36.896 55.7018L39.7363 41.9339L39.3051 41.8461Z" fill="#B42F2D"/>
<path d="M41.0346 41.8436L38.1943 55.6116L38.6255 55.6994L41.4658 41.9315L41.0346 41.8436Z" fill="#B42F2D"/>
<path d="M42.7621 41.8483L39.9219 55.6162L40.3531 55.704L43.1933 41.9361L42.7621 41.8483Z" fill="#B42F2D"/>
<path d="M44.7846 41.8458L41.9443 55.6138L42.3755 55.7016L45.2158 41.9336L44.7846 41.8458Z" fill="#B42F2D"/>
<path d="M46.7338 41.8431L43.8936 55.6111L44.3248 55.6989L47.165 41.931L46.7338 41.8431Z" fill="#B42F2D"/>
<path d="M35.5723 61.5974V61.16H43.569C43.6497 61.16 44.4347 61.109 44.4347 60.1467V60.1175C44.4347 60.1175 44.486 59.6729 44.2146 59.3667C44.0165 59.1407 43.6864 59.0314 43.2315 59.0314H41.4708C41.4414 59.0314 40.7078 59.0387 40.2456 58.5867C40.0108 58.3534 39.8934 58.0545 39.8934 57.6901V55.751H40.3336V57.6901C40.3336 57.9379 40.407 58.1274 40.5537 58.2732C40.8765 58.594 41.4634 58.5867 41.4634 58.594H43.2242C43.8111 58.594 44.2513 58.7616 44.5374 59.0824C44.9115 59.5052 44.8749 60.0592 44.8675 60.1613C44.8602 61.5609 43.5836 61.5974 43.569 61.5974H35.5723Z" fill="#B42F2D"/>
<path d="M31.3611 47.448H30.9209V50.4222H31.3611V47.448Z" fill="#B42F2D"/>
<path d="M49.1882 47.448H48.748V50.4222H49.1882V47.448Z" fill="#B42F2D"/>
</g>
<g clip-path="url(#clip4_87_706)">
<path d="M49.7939 73.5692C49.3244 73.5692 48.9502 73.1974 48.9502 72.7309V56.7663C48.9502 56.2998 49.3244 55.928 49.7939 55.928C50.2634 55.928 50.6376 56.2998 50.6376 56.7663V72.7309C50.6376 73.1974 50.2634 73.5692 49.7939 73.5692Z" fill="#322F2F"/>
<path d="M63.1826 73.5692C62.713 73.5692 62.3389 73.1974 62.3389 72.7309V56.7663C62.3389 56.2998 62.713 55.928 63.1826 55.928C63.6521 55.928 64.0262 56.2998 64.0262 56.7663V72.7309C64.0262 73.1974 63.6521 73.5692 63.1826 73.5692Z" fill="#322F2F"/>
<path d="M63.696 57.532H50.0869V57.9694H63.696V57.532Z" fill="#322F2F"/>
<path d="M62.6693 71.2732H50.124V71.7106H62.6693V71.2732Z" fill="#322F2F"/>
<path d="M51.8117 57.5957L49.7949 67.3718L50.2261 67.4597L52.2429 57.6836L51.8117 57.5957Z" fill="#322F2F"/>
<path d="M53.807 57.5966L50.9668 71.3645L51.398 71.4523L54.2382 57.6844L53.807 57.5966Z" fill="#322F2F"/>
<path d="M55.683 57.5941L52.8428 71.3621L53.274 71.4499L56.1142 57.6819L55.683 57.5941Z" fill="#322F2F"/>
<path d="M57.4125 57.5917L54.5723 71.3596L55.0035 71.4474L57.8437 57.6795L57.4125 57.5917Z" fill="#322F2F"/>
<path d="M59.14 57.5963L56.2998 71.3643L56.731 71.4521L59.5713 57.6841L59.14 57.5963Z" fill="#322F2F"/>
<path d="M61.1625 57.5939L58.3223 71.3618L58.7535 71.4496L61.5937 57.6817L61.1625 57.5939Z" fill="#322F2F"/>
<path d="M63.1117 57.5912L60.2715 71.3591L60.7027 71.447L63.5429 57.679L63.1117 57.5912Z" fill="#322F2F"/>
<path d="M51.9502 77.3454V76.908H59.9469C60.0276 76.908 60.8126 76.857 60.8126 75.8947V75.8656C60.8126 75.8656 60.864 75.4209 60.5925 75.1147C60.3944 74.8888 60.0643 74.7794 59.6094 74.7794H57.8487C57.8193 74.7794 57.0857 74.7867 56.6235 74.3347C56.3887 74.1015 56.2714 73.8026 56.2714 73.4381V71.499H56.7115V73.4381C56.7115 73.686 56.7849 73.8755 56.9316 74.0213C57.2544 74.342 57.8413 74.3347 57.8413 74.342H59.6021C60.189 74.342 60.6292 74.5097 60.9153 74.8304C61.2895 75.2532 61.2528 75.8073 61.2455 75.9093C61.2381 77.309 59.9616 77.3454 59.9469 77.3454H51.9502Z" fill="#322F2F"/>
<path d="M47.739 63.196H47.2988V66.1703H47.739V63.196Z" fill="#322F2F"/>
<path d="M65.5671 63.196H65.127V66.1703H65.5671V63.196Z" fill="#322F2F"/>
</g>
</g>
<defs>
<clipPath id="clip0_87_706">
<rect width="80" height="80" fill="white"/>
</clipPath>
<clipPath id="clip1_87_706">
<rect width="18.2677" height="23.937" fill="white" transform="translate(14.543 53.6733)"/>
</clipPath>
<clipPath id="clip2_87_706">
<rect width="18.2677" height="23.937" fill="white" transform="translate(30.9209 53.6733)"/>
</clipPath>
<clipPath id="clip3_87_706">
<rect width="18.2677" height="19.5276" fill="white" transform="translate(30.9209 37.9253)"/>
</clipPath>
<clipPath id="clip4_87_706">
<rect width="18.2677" height="23.937" fill="white" transform="translate(47.2988 53.6733)"/>
</clipPath>
</defs>
</svg>
