<svg width="80" height="80" viewBox="0 0 80 80" fill="none" xmlns="http://www.w3.org/2000/svg">
<g clip-path="url(#clip0_87_661)">
<path d="M6.2853 69.5012H4.66892C2.64204 69.5012 1 67.8858 1 65.8918V50.4063C1.02566 48.4123 2.66769 46.7969 4.69458 46.7969H46.156C48.1829 46.7969 49.8249 48.4123 49.8249 50.4063V69.5012H23.3727" stroke="#322F2F" stroke-width="2" stroke-miterlimit="10"/>
<path d="M14.8299 77.9822C19.6052 77.9822 23.4763 74.174 23.4763 69.4762C23.4763 64.7785 19.6052 60.9702 14.8299 60.9702C10.0547 60.9702 6.18359 64.7785 6.18359 69.4762C6.18359 74.174 10.0547 77.9822 14.8299 77.9822Z" stroke="#322F2F" stroke-width="2" stroke-miterlimit="10"/>
<path d="M14.8301 73.3629C17.0122 73.3629 18.7812 71.6226 18.7812 69.4759C18.7812 67.3291 17.0122 65.5889 14.8301 65.5889C12.6479 65.5889 10.8789 67.3291 10.8789 69.4759C10.8789 71.6226 12.6479 73.3629 14.8301 73.3629Z" stroke="#322F2F" stroke-width="2" stroke-miterlimit="10"/>
<path d="M63.3456 78.1841C68.1208 78.1841 71.9919 74.3759 71.9919 69.6781C71.9919 64.9804 68.1208 61.1721 63.3456 61.1721C58.5703 61.1721 54.6992 64.9804 54.6992 69.6781C54.6992 74.3759 58.5703 78.1841 63.3456 78.1841Z" stroke="#322F2F" stroke-width="2" stroke-miterlimit="10"/>
<path d="M63.3457 73.5648C65.5278 73.5648 67.2968 71.8245 67.2968 69.6778C67.2968 67.531 65.5278 65.7908 63.3457 65.7908C61.1635 65.7908 59.3945 67.531 59.3945 69.6778C59.3945 71.8245 61.1635 73.5648 63.3457 73.5648Z" stroke="#322F2F" stroke-width="2" stroke-miterlimit="10"/>
<path d="M78.6113 52.8931H75.3529C74.6586 52.8931 74.0957 53.4468 74.0957 54.1298V63.0397C74.0957 63.7228 74.6586 64.2765 75.3529 64.2765H78.6113C79.3056 64.2765 79.8685 63.7228 79.8685 63.0397V54.1298C79.8685 53.4468 79.3056 52.8931 78.6113 52.8931Z" fill="#B42F2D"/>
<path d="M54.7247 69.5012H49.8242V32.095C50.3117 30.1262 52.236 30 52.236 30H65.09C68.4767 30 70.0418 33.4832 70.0418 33.4832L75.3271 43.6046C76.4303 45.6995 76.9948 47.9964 76.9948 50.3438V52.8678" stroke="#322F2F" stroke-width="2" stroke-miterlimit="10"/>
<path d="M76.9679 64.2764V65.9675C76.9679 67.911 75.3515 69.5011 73.376 69.5011H71.9648" stroke="#322F2F" stroke-width="2" stroke-miterlimit="10"/>
<path d="M55.3672 53.9785H59.2927" stroke="#322F2F" stroke-miterlimit="10"/>
<path d="M57.8026 35.3762H71.0159L71.9395 37.1683C72.4783 38.2284 74.4539 41.8125 74.9414 42.8979L75.9163 44.9928L76.5578 46.9868C76.7117 47.3654 76.5064 47.744 76.0959 47.744H57.777C56.7507 47.744 55.9297 46.9363 55.9297 45.9267V37.1935C55.9297 36.1839 56.7507 35.3762 57.777 35.3762H57.8026Z" stroke="#322F2F" stroke-width="2" stroke-miterlimit="10"/>
<path d="M1.02539 64.5542H7.77313" stroke="#322F2F" stroke-width="2" stroke-miterlimit="10"/>
<path d="M22.0391 64.8318L49.7997 64.5542" stroke="#322F2F" stroke-width="2" stroke-miterlimit="10"/>
<g clip-path="url(#clip1_87_661)">
<path d="M10.0775 24.7841C7.99358 24.3854 6.22565 23.4977 4.72103 22.0758C4.50286 21.8652 4.37496 21.647 4.47276 21.3461C4.57809 21 5.00691 20.8872 5.3304 21.1279C5.60876 21.3386 5.85702 21.5943 6.12785 21.8125C7.85817 23.1742 9.8217 23.8061 12.0185 23.7986C13.4554 23.7911 14.8998 23.7083 16.3367 23.9039C19.4814 24.3252 22.0693 25.7772 24.0554 28.2448C26.0265 30.6823 26.8841 33.5034 26.6283 36.6105C26.2221 41.5456 22.8818 45.5254 18.383 46.9172C12.2893 48.8055 5.9172 45.6758 3.72045 39.6874C1.64407 34.0225 4.14927 27.7708 9.58096 25.0399C9.73142 24.9647 9.88189 24.8895 10.0775 24.7841ZM14.8471 24.9346C8.64057 24.912 3.64522 30.276 4.17936 36.5428C4.66084 42.2077 9.54335 46.6463 15.4189 46.3228C21.3396 45.9993 26.0039 40.8987 25.5074 34.7447C25.041 29.0723 20.2187 24.912 14.8471 24.9346Z" fill="#322F2F"/>
<path d="M14.8332 45.7737C9.26612 45.7586 4.68454 41.2899 4.70711 35.6024C4.72968 29.8848 9.37897 25.4763 14.9085 25.4989C20.4605 25.5214 25.0421 30.1105 24.9894 35.6927C24.9293 41.3501 20.3702 45.7661 14.8332 45.7737ZM24.4026 35.6325C24.3951 30.3588 20.1521 26.0556 14.8558 26.0631C9.46925 26.0631 5.26382 30.434 5.27887 35.64C5.29392 40.9288 9.58209 45.2245 14.8633 45.217C20.1295 45.2019 24.4026 40.9062 24.4026 35.6325Z" fill="#322F2F"/>
<path d="M23.5672 35.625C23.5748 40.4248 19.6627 44.3894 14.863 44.3669C9.90526 44.3443 6.13618 40.3721 6.12114 35.6551C6.10609 30.8328 10.0256 26.8982 14.848 26.8982C19.6477 26.9057 23.5597 30.8177 23.5672 35.625ZM14.8404 43.7876C19.3393 43.7876 23.0105 40.1765 23.003 35.6551C23.003 31.1262 19.4145 27.5 14.8404 27.47C10.3642 27.4474 6.67785 31.1111 6.67785 35.6175C6.67785 40.2593 10.4394 43.8177 14.8404 43.7876Z" fill="#322F2F"/>
<path d="M22.1593 35.6249C22.1668 39.6498 18.8942 42.9374 14.8619 42.9524C10.8144 42.9675 7.52682 39.6949 7.51177 35.64C7.49672 31.6151 10.8295 28.2824 14.8468 28.3125C18.8942 28.335 22.1518 31.5925 22.1593 35.6249ZM21.5875 35.9559C21.7606 32.4878 19.2328 29.2378 15.4186 28.9068C11.5442 28.5682 8.31674 31.5248 8.1061 35.2638C7.90297 38.8147 10.6188 42.2377 14.6362 42.3882C18.0968 42.5236 21.3919 39.8379 21.5875 35.9559Z" fill="#322F2F"/>
<path d="M20.7541 35.6325C20.7691 38.8674 18.1285 41.5231 14.8635 41.5532C11.6135 41.5833 8.93527 38.9126 8.92775 35.6475C8.92023 32.4051 11.5759 29.7268 14.8184 29.7193C18.0759 29.7043 20.739 32.3524 20.7541 35.6325ZM9.49198 35.6174C9.48446 38.5665 11.8843 40.9814 14.8334 40.9814C17.7599 40.9889 20.1748 38.5891 20.1899 35.6626C20.2049 32.6985 17.8351 30.3136 14.8635 30.2911C11.9069 30.2835 9.49951 32.6684 9.49198 35.6174Z" fill="#322F2F"/>
<path d="M14.8257 40.4249C12.1926 40.4173 10.0561 38.2808 10.041 35.6477C10.0335 33.0221 12.2077 30.8404 14.8483 30.8479C17.4664 30.8554 19.618 33.0071 19.633 35.6326C19.6481 38.2657 17.4664 40.4324 14.8257 40.4249ZM14.8483 39.2813C16.872 39.2813 18.5271 37.6262 18.5121 35.6251C18.497 33.624 16.8344 31.9764 14.8333 31.9764C12.8321 31.9764 11.162 33.654 11.1695 35.6401C11.177 37.6563 12.8246 39.2813 14.8483 39.2813Z" fill="#322F2F"/>
</g>
<g clip-path="url(#clip2_87_661)">
<path d="M21.0775 3.78414C18.9936 3.38541 17.2257 2.49769 15.721 1.07582C15.5029 0.865169 15.375 0.646999 15.4728 0.346074C15.5781 1.08089e-05 16.0069 -0.112836 16.3304 0.127904C16.6088 0.338551 16.857 0.594337 17.1279 0.812508C18.8582 2.17419 20.8217 2.80613 23.0185 2.79861C24.4554 2.79109 25.8998 2.70833 27.3367 2.90393C30.4814 3.32523 33.0693 4.77719 35.0554 7.24477C37.0265 9.68226 37.8841 12.5034 37.6283 15.6105C37.2221 20.5456 33.8818 24.5254 29.383 25.9172C23.2893 27.8055 16.9172 24.6758 14.7205 18.6874C12.6441 13.0225 15.1493 6.77082 20.581 4.03993C20.7314 3.96469 20.8819 3.88946 21.0775 3.78414ZM25.8471 3.9346C19.6406 3.91203 14.6452 9.27602 15.1794 15.5428C15.6608 21.2077 20.5433 25.6463 26.4189 25.3228C32.3396 24.9993 37.0039 19.8987 36.5074 13.7447C36.041 8.07232 31.2187 3.91203 25.8471 3.9346Z" fill="#322F2F"/>
<path d="M25.8332 24.7737C20.2661 24.7586 15.6845 20.2899 15.7071 14.6024C15.7297 8.88484 20.379 4.4763 25.9085 4.49887C31.4605 4.52143 36.0421 9.11054 35.9894 14.6927C35.9293 20.3501 31.3702 24.7661 25.8332 24.7737ZM35.4026 14.6325C35.3951 9.3588 31.1521 5.05558 25.8558 5.0631C20.4692 5.0631 16.2638 9.43403 16.2789 14.64C16.2939 19.9288 20.5821 24.2245 25.8633 24.217C31.1295 24.2019 35.4026 19.9062 35.4026 14.6325Z" fill="#322F2F"/>
<path d="M34.5672 14.625C34.5748 19.4248 30.6627 23.3894 25.863 23.3669C20.9053 23.3443 17.1362 19.3721 17.1211 14.6551C17.1061 9.83278 21.0256 5.89819 25.848 5.89819C30.6477 5.90572 34.5597 9.81774 34.5672 14.625ZM25.8404 22.7876C30.3393 22.7876 34.0105 19.1765 34.003 14.6551C34.003 10.1262 30.4145 6.50004 25.8404 6.46995C21.3642 6.44738 17.6778 10.1111 17.6778 14.6175C17.6778 19.2593 21.4394 22.8177 25.8404 22.7876Z" fill="#322F2F"/>
<path d="M33.1593 14.6249C33.1668 18.6498 29.8942 21.9374 25.8619 21.9524C21.8144 21.9675 18.5268 18.6949 18.5118 14.64C18.4967 10.6151 21.8295 7.28237 25.8468 7.31246C29.8942 7.33503 33.1518 10.5925 33.1593 14.6249ZM32.5875 14.9559C32.7606 11.4878 30.2328 8.2378 26.4186 7.90678C22.5442 7.56824 19.3167 10.5248 19.1061 14.2638C18.903 17.8147 21.6188 21.2377 25.6362 21.3882C29.0968 21.5236 32.3919 18.8379 32.5875 14.9559Z" fill="#322F2F"/>
<path d="M31.7541 14.6325C31.7691 17.8674 29.1285 20.5231 25.8635 20.5532C22.6135 20.5833 19.9353 17.9126 19.9278 14.6475C19.9202 11.4051 22.5759 8.72683 25.8184 8.7193C29.0759 8.70426 31.739 11.3524 31.7541 14.6325ZM20.492 14.6174C20.4845 17.5665 22.8843 19.9814 25.8334 19.9814C28.7599 19.9889 31.1748 17.5891 31.1899 14.6626C31.2049 11.6985 28.8351 9.31363 25.8635 9.29106C22.9069 9.28354 20.4995 11.6684 20.492 14.6174Z" fill="#322F2F"/>
<path d="M25.8257 19.4249C23.1926 19.4173 21.0561 17.2808 21.041 14.6477C21.0335 12.0221 23.2077 9.8404 25.8483 9.84792C28.4664 9.85544 30.618 12.0071 30.633 14.6326C30.6481 17.2657 28.4664 19.4324 25.8257 19.4249ZM25.8483 18.2813C27.872 18.2813 29.5271 16.6262 29.5121 14.6251C29.497 12.624 27.8344 10.9764 25.8333 10.9764C23.8321 10.9764 22.162 12.654 22.1695 14.6401C22.177 16.6563 23.8246 18.2813 25.8483 18.2813Z" fill="#322F2F"/>
</g>
<g clip-path="url(#clip3_87_661)">
<path d="M33.0794 24.7841C30.9955 24.3854 29.2276 23.4977 27.723 22.0758C27.5048 21.8652 27.3769 21.647 27.4747 21.3461C27.58 21 28.0089 20.8872 28.3324 21.1279C28.6107 21.3386 28.859 21.5943 29.1298 21.8125C30.8601 23.1742 32.8237 23.8061 35.0204 23.7986C36.4573 23.7911 37.9018 23.7083 39.3387 23.9039C42.4833 24.3252 45.0713 25.7772 47.0574 28.2448C49.0285 30.6823 49.8861 33.5034 49.6303 36.6105C49.2241 41.5456 45.8838 45.5254 41.385 46.9172C35.2912 48.8055 28.9192 45.6758 26.7224 39.6874C24.646 34.0225 27.1512 27.7708 32.5829 25.0399C32.7334 24.9647 32.8838 24.8895 33.0794 24.7841ZM37.8491 24.9346C31.6425 24.912 26.6472 30.276 27.1813 36.5428C27.6628 42.2077 32.5453 46.6463 38.4209 46.3228C44.3415 45.9993 49.0059 40.8987 48.5094 34.7447C48.0429 29.0723 43.2206 24.912 37.8491 24.9346Z" fill="#B42F2D"/>
<path d="M37.8352 45.7737C32.2681 45.7586 27.6865 41.2899 27.7091 35.6024C27.7316 29.8848 32.3809 25.4763 37.9104 25.4989C43.4625 25.5214 48.0441 30.1105 47.9914 35.6927C47.9312 41.3501 43.3722 45.7661 37.8352 45.7737ZM47.4046 35.6325C47.3971 30.3588 43.154 26.0556 37.8578 26.0631C32.4712 26.0631 28.2658 30.434 28.2808 35.64C28.2959 40.9288 32.584 45.2245 37.8653 45.217C43.1315 45.2019 47.4046 40.9062 47.4046 35.6325Z" fill="#B42F2D"/>
<path d="M46.5692 35.625C46.5767 40.4248 42.6647 44.3894 37.865 44.3669C32.9072 44.3443 29.1381 40.3721 29.1231 35.6551C29.108 30.8328 33.0276 26.8982 37.8499 26.8982C42.6497 26.9057 46.5617 30.8177 46.5692 35.625ZM37.8424 43.7876C42.3412 43.7876 46.0125 40.1765 46.005 35.6551C46.005 31.1262 42.4164 27.5 37.8424 27.47C33.3661 27.4474 29.6798 31.1111 29.6798 35.6175C29.6798 40.2593 33.4414 43.8177 37.8424 43.7876Z" fill="#B42F2D"/>
<path d="M45.1612 35.6249C45.1688 39.6498 41.8962 42.9374 37.8638 42.9524C33.8164 42.9675 30.5288 39.6949 30.5137 35.64C30.4987 31.6151 33.8314 28.2824 37.8488 28.3125C41.8962 28.335 45.1537 31.5925 45.1612 35.6249ZM44.5895 35.9559C44.7625 32.4878 42.2347 29.2378 38.4205 28.9068C34.5461 28.5682 31.3187 31.5248 31.108 35.2638C30.9049 38.8147 33.6208 42.2377 37.6381 42.3882C41.0988 42.5236 44.3939 39.8379 44.5895 35.9559Z" fill="#B42F2D"/>
<path d="M43.756 35.6325C43.7711 38.8674 41.1305 41.5231 37.8654 41.5532C34.6155 41.5833 31.9372 38.9126 31.9297 35.6475C31.9222 32.4051 34.5778 29.7268 37.8203 29.7193C41.0778 29.7043 43.741 32.3524 43.756 35.6325ZM32.4939 35.6174C32.4864 38.5665 34.8863 40.9814 37.8354 40.9814C40.7618 40.9889 43.1768 38.5891 43.1918 35.6626C43.2069 32.6985 40.8371 30.3136 37.8654 30.2911C34.9089 30.2835 32.5015 32.6684 32.4939 35.6174Z" fill="#B42F2D"/>
<path d="M37.8277 40.4249C35.1946 40.4173 33.058 38.2808 33.043 35.6477C33.0355 33.0221 35.2096 30.8404 37.8503 30.8479C40.4683 30.8554 42.6199 33.0071 42.635 35.6326C42.65 38.2657 40.4683 40.4324 37.8277 40.4249ZM37.8503 39.2813C39.874 39.2813 41.5291 37.6262 41.514 35.6251C41.499 33.624 39.8364 31.9764 37.8352 31.9764C35.8341 31.9764 34.1639 33.654 34.1715 35.6401C34.179 37.6563 35.8265 39.2813 37.8503 39.2813Z" fill="#B42F2D"/>
</g>
</g>
<defs>
<clipPath id="clip0_87_661">
<rect width="80" height="80" fill="white"/>
</clipPath>
<clipPath id="clip1_87_661">
<rect width="23.6828" height="26.4663" fill="white" transform="translate(3 21)"/>
</clipPath>
<clipPath id="clip2_87_661">
<rect width="23.6828" height="26.4663" fill="white" transform="translate(14)"/>
</clipPath>
<clipPath id="clip3_87_661">
<rect width="23.6828" height="26.4663" fill="white" transform="translate(26 21)"/>
</clipPath>
</defs>
</svg>
