<svg width="80" height="80" viewBox="0 0 80 80" fill="none" xmlns="http://www.w3.org/2000/svg">
<path d="M71.8543 48V20.5743C71.8543 16.3205 68.3244 12.8118 63.9912 12.8118H15.9851C11.6763 12.8118 8.12207 16.3205 8.12207 20.5983V61.1173C8.12207 65.371 11.6519 68.8798 15.9851 68.8798H23" stroke="#322F2F" stroke-width="2" stroke-miterlimit="10"/>
<path d="M8.12207 27.0872H71.8786" stroke="#322F2F" stroke-width="2" stroke-miterlimit="10"/>
<path d="M27.9131 10.072V15.7197" stroke="#322F2F" stroke-width="1.5" stroke-miterlimit="10"/>
<path d="M40.1338 10.072V15.7197" stroke="#322F2F" stroke-width="1.5" stroke-miterlimit="10"/>
<path d="M52.3789 10V15.6477" stroke="#322F2F" stroke-width="1.5" stroke-miterlimit="10"/>
<path d="M27.7427 32.0859H22.7279C21.1145 32.0859 19.8066 33.3771 19.8066 34.9698V39.9206C19.8066 41.5133 21.1145 42.8045 22.7279 42.8045H27.7427C29.3561 42.8045 30.664 41.5133 30.664 39.9206V34.9698C30.664 33.3771 29.3561 32.0859 27.7427 32.0859Z" stroke="#322F2F" stroke-width="1.5" stroke-miterlimit="10"/>
<path d="M42.397 32.0859H37.3822C35.7688 32.0859 34.4609 33.3771 34.4609 34.9698V39.9206C34.4609 41.5133 35.7688 42.8045 37.3822 42.8045H42.397C44.0104 42.8045 45.3183 41.5133 45.3183 39.9206V34.9698C45.3183 33.3771 44.0104 32.0859 42.397 32.0859Z" stroke="#322F2F" stroke-width="1.5" stroke-miterlimit="10"/>
<path d="M57.0767 32.0859H52.0619C50.4485 32.0859 49.1406 33.3771 49.1406 34.9698V39.9206C49.1406 41.5133 50.4485 42.8045 52.0619 42.8045H57.0767C58.6901 42.8045 59.998 41.5133 59.998 39.9206V34.9698C59.998 33.3771 58.6901 32.0859 57.0767 32.0859Z" stroke="#322F2F" stroke-width="1.5" stroke-miterlimit="10"/>
<path d="M27.9859 45.7124H22.9711C21.3577 45.7124 20.0498 47.0036 20.0498 48.5963V53.547C20.0498 55.1398 21.3577 56.4309 22.9711 56.4309H27.9859C29.5993 56.4309 30.9072 55.1398 30.9072 53.547V48.5963C30.9072 47.0036 29.5993 45.7124 27.9859 45.7124Z" stroke="#322F2F" stroke-width="1.5" stroke-miterlimit="10"/>
<path d="M42.6412 45.7124H37.6263C36.013 45.7124 34.7051 47.0036 34.7051 48.5963V53.547C34.7051 55.1398 36.013 56.4309 37.6263 56.4309H42.6412C44.2545 56.4309 45.5624 55.1398 45.5624 53.547V48.5963C45.5624 47.0036 44.2545 45.7124 42.6412 45.7124Z" stroke="#322F2F" stroke-width="1.5" stroke-miterlimit="10"/>
<path d="M50.7691 56C49.9382 55.4915 49.3848 54.5831 49.3848 53.547V48.5963C49.3848 47.0036 50.6927 45.7124 52.306 45.7124H57.3209C58.5411 45.7124 59.5866 46.451 60.0236 47.5" stroke="#322F2F" stroke-width="1.5" stroke-miterlimit="10"/>
<path d="M65.7969 48.75C69.5377 48.75 72.8903 49.3411 75.2803 50.2705C76.4776 50.7361 77.3953 51.2722 78.001 51.8291C78.606 52.3854 78.8427 52.9052 78.8428 53.3652C78.8428 53.8252 78.606 54.3451 78.001 54.9014C77.3953 55.4582 76.4776 55.9943 75.2803 56.46C72.8903 57.3894 69.5377 57.9804 65.7969 57.9805C62.0559 57.9805 58.7025 57.3894 56.3125 56.46C55.1152 55.9943 54.1974 55.4582 53.5918 54.9014C52.9869 54.3451 52.75 53.8252 52.75 53.3652C52.75 52.9053 52.9868 52.3853 53.5918 51.8291C54.1974 51.2722 55.1152 50.7361 56.3125 50.2705C58.7025 49.3411 62.0559 48.75 65.7969 48.75Z" stroke="#B42F2D" stroke-width="1.5"/>
<path d="M78.8428 59.4963C78.8428 59.9564 78.606 60.4771 78.001 61.0334C77.3953 61.5902 76.4774 62.1255 75.2803 62.5911C72.8903 63.5205 69.5377 64.1115 65.7969 64.1116C62.0559 64.1116 58.7025 63.5205 56.3125 62.5911C55.1154 62.1255 54.1974 61.5902 53.5918 61.0334C52.9868 60.4771 52.75 59.9564 52.75 59.4963V57.6614C53.2909 58.1455 53.9992 58.6635 54.8916 59.092C55.3199 59.3399 55.8317 59.5888 56.4326 59.8225C58.7723 60.7323 62.0834 61.3196 65.7969 61.3196C69.5104 61.3195 72.8215 60.7323 75.1611 59.8225C75.78 59.5818 76.3035 59.3249 76.7383 59.0706C77.6901 58.5137 78.299 58.0616 78.8037 57.595C78.8172 57.5825 78.8294 57.5684 78.8428 57.5559V59.4963Z" stroke="#B42F2D" stroke-width="1.5"/>
<path d="M78.8428 65.6282C78.8428 66.0882 78.606 66.609 78.001 67.1653C77.3953 67.722 76.4774 68.2573 75.2803 68.7229C72.8903 69.6523 69.5377 70.2434 65.7969 70.2434C62.0559 70.2434 58.7025 69.6524 56.3125 68.7229C55.1154 68.2573 54.1974 67.722 53.5918 67.1653C52.9868 66.609 52.75 66.0882 52.75 65.6282V63.7932C53.2909 64.2774 53.9992 64.7954 54.8916 65.2239C55.3199 65.4717 55.8317 65.7207 56.4326 65.9543C58.7723 66.8641 62.0834 67.4514 65.7969 67.4514C69.5104 67.4514 72.8215 66.8641 75.1611 65.9543C75.78 65.7137 76.3035 65.4568 76.7383 65.2024C77.6901 64.6455 78.299 64.1934 78.8037 63.7268C78.8172 63.7143 78.8294 63.7003 78.8428 63.6877V65.6282Z" stroke="#B42F2D" stroke-width="1.5"/>
<path d="M78.8428 71.7598C78.8428 72.2198 78.606 72.7406 78.001 73.2969C77.3953 73.8536 76.4774 74.3889 75.2803 74.8545C72.8903 75.7839 69.5377 76.375 65.7969 76.375C62.0559 76.375 58.7025 75.7839 56.3125 74.8545C55.1154 74.3889 54.1974 73.8536 53.5918 73.2969C52.9868 72.7406 52.75 72.2198 52.75 71.7598V69.9248C53.2909 70.409 53.9992 70.9269 54.8916 71.3555C55.3199 71.6033 55.8317 71.8523 56.4326 72.0859C58.7723 72.9957 62.0834 73.583 65.7969 73.583C69.5104 73.583 72.8215 72.9957 75.1611 72.0859C75.78 71.8453 76.3035 71.5884 76.7383 71.334C77.6901 70.7771 78.299 70.325 78.8037 69.8584C78.8172 69.8459 78.8294 69.8319 78.8428 69.8193V71.7598Z" stroke="#B42F2D" stroke-width="1.5"/>
<path d="M37.7969 59.75C41.2073 59.75 44.2611 60.2886 46.4346 61.1338C47.5236 61.5573 48.3533 62.0438 48.8984 62.5449C49.4429 63.0456 49.6465 63.5046 49.6465 63.9004C49.6464 64.2961 49.4428 64.7544 48.8984 65.2549C48.3533 65.7561 47.5236 66.2425 46.4346 66.666C44.2611 67.5112 41.2073 68.0498 37.7969 68.0498C34.3862 68.0498 31.3317 67.5113 29.1582 66.666C28.0692 66.2425 27.2394 65.7561 26.6943 65.2549C26.15 64.7544 25.9464 64.2961 25.9463 63.9004C25.9463 63.5046 26.1498 63.0456 26.6943 62.5449C27.2394 62.0438 28.0692 61.5573 29.1582 61.1338C31.3317 60.2885 34.3862 59.75 37.7969 59.75Z" stroke="#B42F2D" stroke-width="1.5"/>
<path d="M49.6465 69.4998C49.6465 69.8955 49.4429 70.3546 48.8984 70.8552C48.3533 71.3563 47.5234 71.8419 46.4346 72.2654C44.2611 73.1106 41.2073 73.6501 37.7969 73.6501C34.3862 73.6501 31.3317 73.1106 29.1582 72.2654C28.0694 71.8419 27.2394 71.3563 26.6943 70.8552C26.1498 70.3546 25.9463 69.8955 25.9463 69.4998V67.9656C26.4287 68.3827 27.0438 68.821 27.8057 69.1873C28.1997 69.4152 28.6696 69.6438 29.2207 69.8582C31.3668 70.6927 34.3993 71.2302 37.7969 71.2302C41.1942 71.2302 44.2261 70.6926 46.3721 69.8582C46.9404 69.6371 47.4219 69.401 47.8223 69.1667C48.6498 68.6826 49.1954 68.2826 49.6465 67.8757V69.4998Z" stroke="#B42F2D" stroke-width="1.5"/>
<path d="M49.6465 75.0999C49.6465 75.4956 49.4429 75.9547 48.8984 76.4553C48.3533 76.9564 47.5234 77.442 46.4346 77.8655C44.2611 78.7107 41.2073 79.2502 37.7969 79.2502C34.3862 79.2502 31.3317 78.7107 29.1582 77.8655C28.0694 77.442 27.2394 76.9564 26.6943 76.4553C26.1498 75.9547 25.9463 75.4956 25.9463 75.0999V73.5657C26.4287 73.9828 27.0438 74.4211 27.8057 74.7874C28.1997 75.0153 28.6696 75.2439 29.2207 75.4583C31.3668 76.2928 34.3993 76.8303 37.7969 76.8303C41.1942 76.8303 44.2261 76.2927 46.3721 75.4583C46.9404 75.2372 47.4219 75.0011 47.8223 74.7668C48.6498 74.2827 49.1954 73.8827 49.6465 73.4758V75.0999Z" stroke="#B42F2D" stroke-width="1.5"/>
</svg>
