<svg width="80" height="80" viewBox="0 0 80 80" fill="none" xmlns="http://www.w3.org/2000/svg">
<path d="M22.5119 28L24.4816 45.4419C24.5309 46.5911 23.6445 47.5404 22.5119 47.5404H13.9683C12.2202 47.5404 11.3338 49.6889 12.5895 50.938L38.6144 77.4191C39.3776 78.1936 40.6333 78.1936 41.3966 77.4191L67.4215 50.938C68.6525 49.6889 67.7908 47.5404 66.0426 47.5404H57.4498C56.3172 47.5404 55.4308 46.5911 55.48 45.4419L57.4498 28.5" stroke="#B42F2D" stroke-width="2.4" stroke-miterlimit="10"/>
<path d="M41.6613 24.9409H36.8359V23H41.6613C42.5957 23 43.3524 22.8516 43.9313 22.5549C44.5102 22.2582 44.9319 21.8462 45.1966 21.3187C45.4695 20.7912 45.6059 20.1896 45.6059 19.5137C45.6059 18.8956 45.4695 18.3146 45.1966 17.7706C44.9319 17.2266 44.5102 16.7898 43.9313 16.4602C43.3524 16.1223 42.5957 15.9533 41.6613 15.9533H37.3941V32H35V14H41.6613C43.0258 14 44.1794 14.2349 45.1221 14.7047C46.0649 15.1745 46.7802 15.8255 47.2681 16.658C47.756 17.4821 48 18.4258 48 19.489C48 20.6429 47.756 21.6277 47.2681 22.4437C46.7802 23.2596 46.0649 23.8819 45.1221 24.3104C44.1794 24.7308 43.0258 24.9409 41.6613 24.9409Z" fill="#B42F2D"/>
<path d="M34 28H43" stroke="#B42F2D" stroke-width="2" stroke-linecap="round"/>
<path d="M23.1338 1.47559C23.3651 0.724818 24.2729 0.542392 24.8975 1.00195L24.8994 1.00293C25.1321 1.17705 25.3498 1.36912 25.5596 1.55566C25.771 1.74368 25.9727 1.9254 26.1826 2.09277L26.6992 2.47754C29.3013 4.3361 32.2255 5.20237 35.4814 5.19141L37.208 5.16895C38.9428 5.14145 40.6998 5.12623 42.4463 5.36133H42.4453C47.5539 6.03811 51.7651 8.37339 54.9932 12.3389H54.9941C58.1985 16.2573 59.5945 20.7989 59.1787 25.7939C58.518 33.7311 53.084 40.1315 45.7695 42.3691C35.8662 45.4035 25.504 40.3731 21.9316 30.7432C18.5539 21.6303 22.6315 11.5767 31.46 7.1875L31.6211 7.10449C28.5338 6.40552 25.8808 5.02139 23.6006 2.89062L23.5986 2.88867C23.4129 2.71133 23.2452 2.51161 23.1504 2.27539C23.0526 2.03165 23.0392 1.76633 23.1338 1.47559ZM40.0215 7.49414C30.2045 7.45884 22.3071 15.8491 23.1514 25.6445C23.9126 34.5007 31.6323 41.4432 40.9258 40.9375H40.9268C50.2936 40.4312 57.6658 32.4529 56.8809 22.833C56.1434 13.9674 48.5193 7.45892 40.0234 7.49414H40.0215Z" fill="#322F2F" stroke="#322F2F" stroke-width="0.5"/>
</svg>
