<svg width="80" height="80" viewBox="0 0 80 80" fill="none" xmlns="http://www.w3.org/2000/svg">
<path d="M39.5127 13.5L40.1895 13.5088C47.1671 13.6891 53.5008 16.4831 58.2041 20.9268C58.779 21.47 58.7309 22.3754 58.1484 22.876C57.6169 23.3327 56.8364 23.2934 56.3398 22.8271C52.0033 18.7535 46.0928 16.2447 39.4854 16.2021C26.1555 16.1367 15.1914 26.827 15.1914 39.9551C15.1914 53.4808 26.3785 63.8632 39.4854 63.7754H39.4883C45.1419 63.7754 50.3541 61.8995 54.4893 58.7422C55.0919 58.2822 55.9749 58.3831 56.4346 59.0156C56.8513 59.5894 56.7582 60.403 56.1826 60.8496C51.5985 64.4055 45.8206 66.5289 39.5547 66.5C24.2227 66.4315 12.5466 54.3878 12.5 40.0684C12.4535 25.4276 24.5947 13.5 39.5117 13.5H39.5127Z" fill="#B42F2D" stroke="#B42F2D"/>
<path d="M61.6128 65.4937C60.0956 66.8059 58.5374 67.954 56.8562 68.9791C43.9397 76.7701 26.9637 75.0889 15.8104 63.9766C2.72986 50.896 2.72986 29.6555 15.8104 16.534C28.3169 4.02749 48.2452 3.45343 61.4078 14.8528" stroke="#322F2F" stroke-width="1.5" stroke-miterlimit="10"/>
<path d="M64.5003 16.7251C64.6922 17.0405 64.3958 17.4376 64.0391 17.3426C60.7753 16.4733 56.8131 15.7484 53.4859 15.7196C53.0752 15.7161 52.8944 15.1528 53.2375 14.9271L57.5781 12.071C57.6584 12.0182 57.7169 11.9383 57.7431 11.8459L59.1564 6.85667C59.2706 6.45349 59.8833 6.46706 59.9991 6.86979C60.937 10.1325 62.7173 13.7936 64.5003 16.7251Z" fill="#B42F2D"/>
<path d="M40.0842 25V43.0712C40.0842 43.6235 39.6365 44.0712 39.0842 44.0712H27" stroke="#B42F2D" stroke-width="3" stroke-miterlimit="10" stroke-linecap="round"/>
<path d="M71.3544 51C70.0344 51 68.8464 50.7604 67.7904 50.2813C66.7344 49.7924 65.8348 49.0836 65.0917 48.1547C64.3584 47.2258 63.7961 46.0769 63.405 44.708C63.0139 43.3391 62.8184 41.7698 62.8184 40C62.8184 38.2302 63.0139 36.6609 63.405 35.292C63.7961 33.9231 64.3584 32.7742 65.0917 31.8453C65.8348 30.9164 66.7344 30.2124 67.7904 29.7333C68.8464 29.2444 70.0344 29 71.3544 29C72.6841 29 73.8721 29.2444 74.9184 29.7333C75.9744 30.2124 76.869 30.9164 77.6024 31.8453C78.3357 32.7742 78.8979 33.9231 79.289 35.292C79.6801 36.6609 79.8757 38.2302 79.8757 40C79.8757 41.7698 79.6801 43.3391 79.289 44.708C78.8979 46.0769 78.3357 47.2258 77.6024 48.1547C76.869 49.0836 75.9744 49.7924 74.9184 50.2813C73.8721 50.7604 72.6841 51 71.3544 51ZM71.3544 47.6707C72.1464 47.6707 72.8406 47.4947 73.437 47.1427C74.0335 46.7907 74.5321 46.2822 74.933 45.6173C75.3339 44.9524 75.6321 44.1458 75.8277 43.1973C76.033 42.2489 76.1357 41.1831 76.1357 40C76.1357 38.8071 76.033 37.7413 75.8277 36.8027C75.6321 35.8542 75.3339 35.0476 74.933 34.3827C74.5321 33.7178 74.0335 33.2093 73.437 32.8573C72.8406 32.5053 72.1464 32.3293 71.3544 32.3293C70.5624 32.3293 69.8681 32.5053 69.2717 32.8573C68.6753 33.2093 68.1766 33.7178 67.7757 34.3827C67.3748 35.0378 67.0717 35.8396 66.8664 36.788C66.661 37.7364 66.5584 38.8071 66.5584 40C66.5584 41.1831 66.6561 42.2489 66.8517 43.1973C67.057 44.1458 67.3601 44.9524 67.761 45.6173C68.1717 46.2724 68.6753 46.7809 69.2717 47.1427C69.8681 47.4947 70.5624 47.6707 71.3544 47.6707Z" fill="#322F2F"/>
<path d="M53.6907 50.5602V33.5469L49.76 35.9082L48 32.8575L53.6907 29.4402H57.2547V50.5602H53.6907Z" fill="#322F2F"/>
</svg>
