<svg width="1266" height="273" viewBox="0 0 1266 273" fill="none" xmlns="http://www.w3.org/2000/svg">
<path d="M1193.59 272.266C1189.27 261.32 1185.13 251.009 1181.18 241.336C1177.24 231.534 1173.35 221.924 1169.54 212.505L1150.83 166.109H1134.41V93.9376H1149.3L1167.63 57.279C1172.08 48.4962 1176.47 39.7135 1180.8 30.9307C1185.26 22.1479 1190.41 11.8377 1196.27 0H1301.66C1292.37 14.2561 1283.2 28.385 1274.17 42.3865C1265.13 56.388 1255.96 70.5805 1246.67 84.9639L1211.54 139.379L1209.63 98.138L1248.58 169.546C1254.56 180.365 1260.99 192.076 1267.87 204.677C1274.74 217.278 1281.42 229.562 1287.91 241.526C1294.4 253.364 1300.01 263.611 1304.71 272.266H1193.59ZM1046.96 272.266C1046.96 258.137 1046.96 244.39 1046.96 231.025C1046.96 217.533 1046.96 202.131 1046.96 184.82V91.2645C1046.96 73.0626 1046.96 56.9608 1046.96 42.9593C1046.96 28.9577 1046.96 14.638 1046.96 0H1140.51C1140.51 14.638 1140.51 28.9577 1140.51 42.9593C1140.51 56.9608 1140.51 73.0626 1140.51 91.2645V184.82C1140.51 202.131 1140.51 217.533 1140.51 231.025C1140.51 244.39 1140.51 258.137 1140.51 272.266H1046.96Z" fill="#EDEDED"/>
<path d="M723.146 272.266C726.838 265.265 731.166 257.119 736.13 247.827C741.094 238.535 746.185 228.989 751.404 219.188C756.623 209.259 761.523 200.031 766.106 191.503L795.7 135.942L832.931 166.491C817.148 166.491 803.464 164.645 791.881 160.954C780.298 157.135 770.688 151.726 763.051 144.725C755.541 137.597 749.877 129.005 746.058 118.949C742.367 108.894 740.521 97.5653 740.521 84.9639C740.521 62.6887 745.04 45.4414 754.077 33.2218C763.115 20.875 776.098 12.2832 793.027 7.44627C810.083 2.48209 830.513 0 854.315 0C867.808 0 882 0 896.893 0C911.913 0 926.169 0 939.661 0C953.153 0 964.482 0 973.647 0C973.647 14.638 973.647 28.9577 973.647 42.9593C973.647 56.9608 973.647 73.0626 973.647 91.2645V184.82C973.647 202.131 973.647 217.533 973.647 231.025C973.647 244.39 973.647 258.137 973.647 272.266H881.618C881.618 258.137 881.618 244.39 881.618 231.025C881.618 217.533 881.618 202.131 881.618 184.82V106.539C881.618 88.337 881.618 72.2352 881.618 58.2337C881.618 44.2321 881.618 29.9124 881.618 15.2744L930.115 70.2623H856.988C853.806 70.2623 851.006 70.835 848.588 71.9806C846.169 72.9989 844.069 74.59 842.287 76.7539C840.632 78.9178 839.359 81.5271 838.468 84.582C837.577 87.6369 837.132 91.1373 837.132 95.0832C837.132 105.521 839.296 112.331 843.623 115.513C848.078 118.695 853.17 120.286 858.898 120.286H898.802V176.419H834.65L888.11 142.052L851.642 218.424C847.569 226.952 843.432 235.608 839.232 244.39C835.032 253.173 830.576 262.465 825.867 272.266H723.146Z" fill="#EDEDED"/>
<path d="M400.848 272.266C405.048 257.756 409.503 242.417 414.213 226.252C418.922 209.959 423.377 194.621 427.578 180.238L454.69 86.6822C459.654 69.6258 464.109 54.3514 468.055 40.859C472.001 27.3666 475.947 13.747 479.893 0H599.415C603.615 14.5107 607.688 28.5122 611.634 42.0046C615.58 55.497 619.908 70.3895 624.618 86.6822L651.73 180.238C656.185 195.258 660.703 210.723 665.286 226.634C669.868 242.545 674.259 257.756 678.46 272.266H581.849C579.176 259.41 576.44 246.236 573.639 232.744C570.966 219.124 568.357 206.332 565.811 194.367L541.754 77.5176H535.644L511.205 192.839C508.532 205.441 505.732 218.679 502.804 232.553C499.877 246.427 497.076 259.665 494.403 272.266H400.848ZM482.948 227.97L493.64 159.236H597.506L606.288 227.97H482.948Z" fill="#EDEDED"/>
<path d="M0 272.266C1.78201 258.647 3.50038 244.772 5.15511 230.643C6.93712 216.515 8.84642 201.24 10.883 184.82L22.5297 92.0283C24.5663 75.7356 26.4756 60.143 28.2576 45.2504C30.1669 30.2306 32.0762 15.1471 33.9855 0H128.687C132.76 11.4558 136.579 22.2115 140.143 32.2672C143.707 42.1955 147.271 52.0603 150.835 61.8614L171.837 120.668H177.565L196.658 62.0523C199.967 52.1239 203.15 42.3865 206.204 32.84C209.387 23.2935 212.951 12.3468 216.896 0H310.07C312.107 15.0198 314.08 29.976 315.989 44.8686C318.026 59.7611 320.126 75.6083 322.29 92.4101L334.509 185.011C336.673 201.686 338.646 216.96 340.428 230.834C342.338 244.581 344.183 258.392 345.965 272.266H256.992C255.337 258.647 253.746 245.791 252.219 233.698C250.691 221.479 249.227 209.959 247.827 199.14L242.099 153.126H235.989L224.152 202.386C221.224 214.733 218.297 226.761 215.369 238.472C212.569 250.182 209.896 261.447 207.35 272.266H145.871C143.452 264.884 140.97 257.31 138.424 249.546C135.879 241.781 133.333 233.953 130.787 226.061C128.241 218.042 125.632 210.087 122.959 202.195L106.921 153.126H100.811L95.2741 198.567C94.0012 209.514 92.6011 221.161 91.0736 233.507C89.5462 245.854 87.9551 258.774 86.3004 272.266H0Z" fill="#EDEDED"/>
</svg>
