<svg width="82" height="81" viewBox="0 0 82 81" fill="none" xmlns="http://www.w3.org/2000/svg">
<g clip-path="url(#clip0_87_787)">
<path d="M35.266 4.86112C32.5383 4.3489 30.2241 3.20848 28.2546 1.38187C27.969 1.11127 27.8016 0.830993 27.9296 0.44441C28.0675 -0.00016076 28.6288 -0.14513 29.0522 0.164137C29.4166 0.434746 29.7416 0.763341 30.0961 1.04361C32.361 2.7929 34.9312 3.60473 37.8067 3.59506C39.6876 3.5854 41.5783 3.47909 43.4592 3.73037C47.5754 4.27158 50.963 6.13685 53.5627 9.30683C56.1428 12.4382 57.2654 16.0624 56.9306 20.0539C56.3988 26.3938 52.0265 31.5064 46.1377 33.2943C38.1612 35.7201 29.8203 31.6997 26.9449 24.0067C24.2269 16.7292 27.5062 8.69796 34.6161 5.18972C34.813 5.09307 35.01 4.99643 35.266 4.86112ZM41.5093 5.05442C33.3851 5.02542 26.8464 11.9163 27.5456 19.9669C28.1758 27.2443 34.5668 32.9464 42.2578 32.5308C50.0078 32.1153 56.1132 25.5627 55.4633 17.657C54.8527 10.3699 48.5405 5.02542 41.5093 5.05442Z" fill="#B42F2D"/>
<path d="M41.4902 31.8255C34.2031 31.8061 28.2059 26.0654 28.2355 18.7589C28.265 11.4139 34.3508 5.75041 41.5887 5.77941C48.8562 5.8084 54.8533 11.7038 54.7844 18.8749C54.7056 26.1427 48.738 31.8158 41.4902 31.8255ZM54.0163 18.7976C54.0064 12.0227 48.4524 6.49459 41.5198 6.50425C34.4689 6.50425 28.9642 12.1194 28.9839 18.8073C29.0036 25.6015 34.6167 31.1199 41.5296 31.1103C48.4229 31.0909 54.0163 25.5725 54.0163 18.7976Z" fill="#B42F2D"/>
<path d="M52.9234 18.7878C52.9332 24.9538 47.8125 30.0471 41.5298 30.0181C35.0403 29.9891 30.1067 24.8862 30.087 18.8265C30.0673 12.6315 35.1978 7.5769 41.5101 7.5769C47.7928 7.58657 52.9135 12.6122 52.9234 18.7878ZM41.5002 29.2739C47.3891 29.2739 52.1947 24.6349 52.1848 18.8265C52.1848 13.0084 47.4875 8.35007 41.5002 8.31141C35.641 8.28242 30.8157 12.9891 30.8157 18.7782C30.8157 24.7412 35.7394 29.3125 41.5002 29.2739Z" fill="#B42F2D"/>
<path d="M51.0814 18.7878C51.0912 23.9583 46.8076 28.1818 41.5293 28.2011C36.2313 28.2204 31.928 24.0163 31.9083 18.8071C31.8886 13.6366 36.251 9.35516 41.5096 9.39381C46.8076 9.42281 51.0715 13.6076 51.0814 18.7878ZM50.333 19.213C50.5595 14.7577 47.2507 10.5826 42.258 10.1573C37.1865 9.72241 32.962 13.5206 32.6862 18.3239C32.4203 22.8856 35.9753 27.283 41.2339 27.4762C45.7637 27.6502 50.0769 24.2 50.333 19.213Z" fill="#B42F2D"/>
<path d="M49.2401 18.7974C49.2598 22.9531 45.8033 26.3647 41.5295 26.4034C37.2754 26.4421 33.7696 23.0111 33.7598 18.8167C33.7499 14.6513 37.2261 11.2107 41.4704 11.201C45.7344 11.1817 49.2204 14.5836 49.2401 18.7974ZM34.4984 18.778C34.4885 22.5666 37.6299 25.6689 41.4901 25.6689C45.3208 25.6786 48.4818 22.5956 48.5015 18.836C48.5212 15.0282 45.4193 11.9645 41.5295 11.9355C37.6594 11.9259 34.5082 14.9895 34.4984 18.778Z" fill="#B42F2D"/>
<path d="M41.4808 24.9539C38.0342 24.9443 35.2375 22.1995 35.2178 18.8169C35.208 15.444 38.0539 12.6412 41.5104 12.6509C44.9373 12.6606 47.7537 15.4246 47.7734 18.7976C47.7931 22.1802 44.9373 24.9636 41.4808 24.9539ZM41.5104 23.4849C44.1593 23.4849 46.3258 21.3587 46.3061 18.7879C46.2864 16.2171 44.1101 14.1006 41.4907 14.1006C38.8712 14.1006 36.6851 16.2558 36.6949 18.8072C36.7048 21.3974 38.8614 23.4849 41.5104 23.4849Z" fill="#B42F2D"/>
</g>
<g clip-path="url(#clip1_87_787)">
<path d="M58.8154 53.0581C59.4558 52.7602 60.2247 52.7631 60.959 53.1343C62.5224 53.9254 63.5553 55.7603 63.5625 57.5493L63.5498 57.9058C63.4738 58.9883 63.2372 60.0267 62.9473 61.0522L62.6436 62.0747C62.5854 62.2661 62.5531 62.41 62.5459 62.519C62.5387 62.6272 62.5576 62.6824 62.5811 62.7144C62.6045 62.7462 62.6522 62.7809 62.7588 62.8062C62.866 62.8315 63.0152 62.8433 63.2188 62.8433C64.3458 62.8433 65.4732 62.8407 66.6016 62.8384C67.7298 62.8361 68.8594 62.8335 69.9912 62.8335C70.8226 62.8335 71.5427 63.0897 72.0859 63.563C72.5612 63.977 72.8933 64.5507 73.0479 65.2476L73.1035 65.5542L73.1211 65.7085C73.1896 66.4762 72.9642 67.1745 72.4912 67.7837L72.4922 67.7847C72.4138 67.8866 72.4011 67.9329 72.4014 67.9585C72.4015 67.9707 72.4046 67.9881 72.418 68.0142L72.4961 68.1245L72.499 68.1265C73.5724 69.4531 73.2837 71.2925 71.8574 72.23L71.8584 72.231C71.7485 72.3072 71.711 72.3388 71.6953 72.3696C71.6876 72.385 71.6738 72.4247 71.7227 72.5532H71.7217C72.2201 73.832 71.7772 75.174 70.6367 75.9155L70.6338 75.9175C70.6111 75.9316 70.5881 75.9451 70.5684 75.9565C70.5479 75.9684 70.5306 75.9787 70.5146 75.9888C70.4814 76.0099 70.4656 76.0237 70.458 76.0337C70.4537 76.0394 70.452 76.0437 70.4521 76.0552C70.4524 76.0715 70.4577 76.1062 70.4883 76.1665C71.3893 77.9417 69.9555 80.14 67.874 80.1499C63.9649 80.1592 60.0546 80.1499 56.1553 80.1499C55.9805 80.1499 55.7998 80.1203 55.6475 80.103L55.6416 80.1021C54.8195 79.9761 54.0904 79.6368 53.4385 79.0991C53.1832 79.4492 52.8887 79.7073 52.5518 79.8794C52.2198 80.0489 51.8543 80.1329 51.46 80.1479L51.29 80.1499C49.4453 80.1407 47.5924 80.1499 45.7461 80.1499C45.4481 80.1499 45.2034 80.1107 45.043 79.9458C44.8847 79.783 44.8454 79.5349 44.8408 79.2339V65.7788C44.8408 65.4844 44.8796 65.2411 45.0342 65.0806C45.1905 64.9183 45.4275 64.8785 45.709 64.8784C47.6168 64.8784 49.5273 64.8692 51.4365 64.8784C52.1655 64.8784 52.8146 65.1385 53.2715 65.7202L53.3604 65.8413L53.3613 65.8423C53.3953 65.8924 53.4196 65.9182 53.4346 65.9312C53.4398 65.9275 53.4479 65.9232 53.457 65.9155C53.4856 65.8914 53.5141 65.8616 53.5596 65.8179H53.5605C54.8369 64.6005 55.5899 63.0343 56.3271 61.4224C56.7856 60.4239 57.2651 59.4748 57.4248 58.3999C57.522 57.7245 57.4693 57.0579 57.4326 56.3579C57.4064 55.8605 57.32 55.3052 57.4639 54.7485V54.7476C57.6744 53.9489 58.1755 53.3559 58.8154 53.0581ZM60.291 54.2866C59.8741 54.1228 59.4811 54.177 59.1924 54.3726C58.9036 54.5683 58.7036 54.9162 58.6953 55.3716V55.3726C58.6865 55.688 58.7224 55.9965 58.7412 56.3315L58.7861 57.1167C58.8216 57.9093 58.8031 58.7183 58.5137 59.5015C57.5673 62.1048 56.4926 64.676 54.5342 66.7241L54.1309 67.1274C53.9137 67.3327 53.8408 67.5572 53.8408 67.8696C53.8499 70.8563 53.8869 73.8572 53.8232 76.8481C53.8147 77.2769 53.9068 77.5852 54.0703 77.8276C54.2355 78.0725 54.4826 78.2645 54.8086 78.4438H54.8096C55.2855 78.7081 55.7961 78.8314 56.3447 78.8315C58.227 78.8223 60.1007 78.8228 61.9824 78.8228H67.7549C68.0775 78.8227 68.3714 78.7541 68.6484 78.6089L68.8096 78.5122C69.1658 78.2718 69.3697 77.9391 69.4238 77.5728C69.486 77.1515 69.3527 76.6665 68.9912 76.2065C68.7983 75.961 68.6985 75.7035 68.7607 75.4692C68.8251 75.2274 69.0429 75.0775 69.3271 75.0063H69.3281C70.0007 74.8395 70.408 74.4697 70.5537 74.0298C70.6997 73.5888 70.596 73.0366 70.1631 72.4771V72.4761C69.9898 72.2527 69.9191 72.0023 69.9932 71.7778C70.0683 71.5506 70.2752 71.3986 70.5508 71.3403C70.8863 71.2694 71.1627 71.155 71.3701 70.979C71.5748 70.8053 71.7222 70.5634 71.7891 70.2192V70.2183C71.8565 69.875 71.824 69.5755 71.7119 69.312C71.5993 69.0473 71.403 68.8092 71.1279 68.5991C70.8786 68.411 70.7009 68.2083 70.6992 67.9653C70.6976 67.7236 70.8709 67.515 71.1152 67.3179C71.4454 67.0425 71.6602 66.7291 71.7627 66.3931C71.8652 66.057 71.8581 65.6885 71.7305 65.2983L71.6826 65.1704C71.4186 64.5456 70.8106 64.1607 70.0459 64.1606H63.0908C62.5471 64.1606 62.0277 64.0655 61.6309 63.5894L61.6299 63.5884C61.0968 62.9433 61.1987 62.2558 61.4307 61.5757L61.583 61.1089C61.9264 60.0162 62.1883 58.9061 62.251 57.7573C62.2901 57.0499 62.0855 56.2911 61.7236 55.6519C61.361 55.0113 60.8497 54.5063 60.291 54.2866ZM46.3906 66.1685C46.2321 66.1685 46.1923 66.1967 46.1797 66.2104C46.1634 66.2283 46.1416 66.2767 46.1416 66.4351C46.1598 68.4435 46.1504 70.4524 46.1504 72.4497C46.1504 74.4659 46.1598 76.4844 46.1416 78.5024C46.1417 78.7004 46.1724 78.7592 46.1953 78.7808C46.22 78.8037 46.2812 78.8274 46.4697 78.8228H46.4717C48.1091 78.8042 49.747 78.814 51.373 78.814C51.7586 78.814 52.0439 78.7041 52.2324 78.5171C52.4207 78.3302 52.5322 78.0462 52.5322 77.6587L52.5391 72.5054C52.5391 70.7868 52.5368 69.0683 52.5322 67.3521V67.3511C52.5322 66.9578 52.4219 66.6718 52.2354 66.4829C52.0722 66.3177 51.8355 66.2119 51.5205 66.1851L51.3809 66.1782C49.7228 66.169 48.0526 66.1869 46.3906 66.1685Z" fill="#322F2F" stroke="#322F2F" stroke-width="0.3"/>
</g>
<path d="M12.6822 46.6173V66.6667L40.6525 76M40.6525 76L40.5763 41.0864M40.6525 76L44.5 74.5M69.1441 46.6173V52.3086V61M25.5 24.5L17.5 27.5L40.5763 37.5L64.5 28.5L57 25.5M13.8983 28.9877L2.5 39L27.4492 50.9383L39.6102 40.0494L13.8983 28.9877ZM42.0424 40.0494L68.4492 29.8519L80 39L53.161 50.2469L42.0424 40.0494Z" stroke="#322F2F" stroke-width="1.5"/>
<defs>
<clipPath id="clip0_87_787">
<rect width="31" height="34" fill="white" transform="translate(26)"/>
</clipPath>
<clipPath id="clip1_87_787">
<rect width="30" height="29" fill="white" transform="translate(44 52)"/>
</clipPath>
</defs>
</svg>
