<svg width="1654" height="345" viewBox="0 0 1654 345" fill="none" xmlns="http://www.w3.org/2000/svg">
<path d="M1512.45 345C1506.97 331.129 1501.73 318.065 1496.73 305.806C1491.73 293.387 1486.81 281.21 1481.97 269.274L1458.26 210.484H1437.45V119.032H1456.32L1479.55 72.5807C1485.19 61.4516 1490.76 50.3226 1496.24 39.1936C1501.89 28.0645 1508.42 15 1515.84 0H1649.39C1637.61 18.0645 1626 35.9678 1614.55 53.7097C1603.1 71.4516 1591.49 89.4355 1579.71 107.661L1535.19 176.613L1532.78 124.355L1582.13 214.839C1589.71 228.548 1597.86 243.387 1606.57 259.355C1615.28 275.323 1623.74 290.887 1631.97 306.048C1640.19 321.048 1647.29 334.032 1653.26 345H1512.45ZM1326.65 345C1326.65 327.097 1326.65 309.677 1326.65 292.742C1326.65 275.645 1326.65 256.129 1326.65 234.194V115.645C1326.65 92.5806 1326.65 72.1774 1326.65 54.4355C1326.65 36.6936 1326.65 18.5484 1326.65 0H1445.19C1445.19 18.5484 1445.19 36.6936 1445.19 54.4355C1445.19 72.1774 1445.19 92.5806 1445.19 115.645V234.194C1445.19 256.129 1445.19 275.645 1445.19 292.742C1445.19 309.677 1445.19 327.097 1445.19 345H1326.65Z" fill="#DDDDDD" fill-opacity="0.29"/>
<path d="M916.33 345C921.007 336.129 926.491 325.806 932.782 314.032C939.072 302.258 945.524 290.161 952.137 277.742C958.749 265.161 964.959 253.468 970.766 242.661L1008.27 172.258L1055.44 210.968C1035.44 210.968 1018.1 208.629 1003.43 203.952C988.749 199.113 976.572 192.258 966.895 183.387C957.378 174.355 950.201 163.468 945.362 150.726C940.685 137.984 938.346 123.629 938.346 107.661C938.346 79.4355 944.072 57.5807 955.524 42.0968C966.975 26.4516 983.427 15.5645 1004.88 9.43549C1026.49 3.14516 1052.38 0 1082.54 0C1099.64 0 1117.62 0 1136.49 0C1155.52 0 1173.59 0 1190.68 0C1207.78 0 1222.14 0 1233.75 0C1233.75 18.5484 1233.75 36.6936 1233.75 54.4355C1233.75 72.1774 1233.75 92.5806 1233.75 115.645V234.194C1233.75 256.129 1233.75 275.645 1233.75 292.742C1233.75 309.677 1233.75 327.097 1233.75 345H1117.14C1117.14 327.097 1117.14 309.677 1117.14 292.742C1117.14 275.645 1117.14 256.129 1117.14 234.194V135C1117.14 111.936 1117.14 91.5323 1117.14 73.7903C1117.14 56.0484 1117.14 37.9032 1117.14 19.3549L1178.59 89.0323H1085.93C1081.89 89.0323 1078.35 89.7581 1075.28 91.2097C1072.22 92.5 1069.56 94.5162 1067.3 97.2581C1065.2 100 1063.59 103.306 1062.46 107.177C1061.33 111.048 1060.77 115.484 1060.77 120.484C1060.77 133.71 1063.51 142.339 1068.99 146.371C1074.64 150.403 1081.09 152.419 1088.35 152.419H1138.91V223.548H1057.62L1125.36 180L1079.15 276.774C1073.99 287.581 1068.75 298.548 1063.43 309.677C1058.1 320.806 1052.46 332.581 1046.49 345H916.33Z" fill="#DDDDDD" fill-opacity="0.29"/>
<path d="M507.934 345C513.256 326.613 518.901 307.177 524.869 286.694C530.837 266.048 536.482 246.613 541.805 228.387L576.159 109.839C582.45 88.2258 588.095 68.871 593.095 51.7742C598.095 34.6774 603.095 17.4194 608.095 0H759.546C764.869 18.3871 770.03 36.1291 775.03 53.2258C780.03 70.3226 785.514 89.1936 791.482 109.839L825.837 228.387C831.482 247.419 837.208 267.016 843.014 287.177C848.821 307.339 854.385 326.613 859.708 345H737.288C733.901 328.71 730.434 312.016 726.885 294.919C723.498 277.661 720.192 261.452 716.966 246.29L686.482 98.2258H678.74L647.772 244.355C644.385 260.323 640.837 277.097 637.127 294.677C633.417 312.258 629.869 329.032 626.482 345H507.934ZM611.966 288.871L625.514 201.774H757.127L768.256 288.871H611.966Z" fill="#DDDDDD" fill-opacity="0.29"/>
<path d="M0 345C2.25806 327.742 4.43548 310.161 6.53226 292.258C8.79032 274.355 11.2097 255 13.7903 234.194L28.5484 116.613C31.129 95.9678 33.5484 76.2097 35.8065 57.3387C38.2258 38.3065 40.6452 19.1936 43.0645 0H163.065C168.226 14.5161 173.065 28.1452 177.581 40.8871C182.097 53.4678 186.613 65.9678 191.129 78.3871L217.742 152.903H225L249.194 78.629C253.387 66.0484 257.419 53.7097 261.29 41.6129C265.323 29.5161 269.839 15.6452 274.839 0H392.903C395.484 19.0323 397.984 37.9839 400.403 56.8548C402.984 75.7258 405.645 95.8065 408.387 117.097L423.871 234.436C426.613 255.565 429.113 274.919 431.371 292.5C433.79 309.919 436.129 327.419 438.387 345H325.645C323.548 327.742 321.532 311.452 319.597 296.129C317.661 280.645 315.806 266.048 314.032 252.339L306.774 194.032H299.032L284.032 256.452C280.323 272.097 276.613 287.339 272.903 302.177C269.355 317.016 265.968 331.29 262.742 345H184.839C181.774 335.645 178.629 326.048 175.403 316.21C172.177 306.371 168.952 296.452 165.726 286.452C162.5 276.29 159.194 266.21 155.806 256.21L135.484 194.032H127.742L120.726 251.613C119.113 265.484 117.339 280.242 115.403 295.887C113.468 311.532 111.452 327.903 109.355 345H0Z" fill="#DDDDDD" fill-opacity="0.29"/>
</svg>
