<svg width="1504" height="338" viewBox="0 0 1504 338" fill="none" xmlns="http://www.w3.org/2000/svg">
<path d="M1481.76 338C1476.39 324.41 1471.26 311.611 1466.36 299.602C1461.46 287.434 1456.64 275.504 1451.9 263.811L1428.67 206.213H1408.29V116.617H1426.77L1449.53 71.108C1455.06 60.2048 1460.51 49.3016 1465.88 38.3983C1471.41 27.4951 1477.81 14.6957 1485.08 0H1615.92C1604.39 17.698 1593.01 35.238 1581.79 52.6199C1570.57 70.0019 1559.19 87.6209 1547.66 105.477L1504.05 173.029L1501.68 121.832L1550.03 210.48C1557.46 223.911 1565.44 238.449 1573.97 254.093C1582.5 269.736 1590.8 284.985 1598.86 299.839C1606.91 314.534 1613.87 327.255 1619.71 338H1481.76ZM1299.73 338C1299.73 320.46 1299.73 303.394 1299.73 286.802C1299.73 270.052 1299.73 250.932 1299.73 229.442V113.299C1299.73 90.7022 1299.73 70.713 1299.73 53.331C1299.73 35.9491 1299.73 18.172 1299.73 0H1415.87C1415.87 18.172 1415.87 35.9491 1415.87 53.331C1415.87 70.713 1415.87 90.7022 1415.87 113.299V229.442C1415.87 250.932 1415.87 270.052 1415.87 286.802C1415.87 303.394 1415.87 320.46 1415.87 338H1299.73Z" fill="#DDDDDD"/>
<path d="M897.738 338C902.321 329.309 907.694 319.196 913.856 307.661C920.019 296.125 926.34 284.274 932.818 272.107C939.297 259.781 945.381 248.325 951.069 237.738L987.809 168.763L1034.03 206.687C1014.43 206.687 997.448 204.396 983.068 199.813C968.688 195.073 956.758 188.357 947.277 179.666C937.954 170.817 930.922 160.151 926.182 147.668C921.599 135.184 919.308 121.121 919.308 105.477C919.308 77.8238 924.917 56.4124 936.137 41.2426C947.356 25.9149 963.474 15.2487 984.49 9.24404C1005.66 3.08134 1031.03 0 1060.58 0C1077.33 0 1094.94 0 1113.43 0C1132.08 0 1149.78 0 1166.53 0C1183.28 0 1197.34 0 1208.72 0C1208.72 18.172 1208.72 35.9491 1208.72 53.331C1208.72 70.713 1208.72 90.7022 1208.72 113.299V229.442C1208.72 250.932 1208.72 270.052 1208.72 286.802C1208.72 303.394 1208.72 320.46 1208.72 338H1094.47C1094.47 320.46 1094.47 303.394 1094.47 286.802C1094.47 270.052 1094.47 250.932 1094.47 229.442V132.261C1094.47 109.664 1094.47 89.6751 1094.47 72.2931C1094.47 54.9112 1094.47 37.1342 1094.47 18.9621L1154.68 87.2258H1063.89C1059.94 87.2258 1056.47 87.9369 1053.46 89.3591C1050.46 90.6232 1047.86 92.5984 1045.64 95.2847C1043.59 97.971 1042.01 101.21 1040.9 105.003C1039.8 108.795 1039.24 113.141 1039.24 118.039C1039.24 130.997 1041.93 139.451 1047.3 143.401C1052.83 147.352 1059.15 149.327 1066.26 149.327H1115.8V219.013H1036.16L1102.53 176.348L1057.26 271.159C1052.2 281.746 1047.07 292.491 1041.85 303.394C1036.64 314.297 1031.11 325.833 1025.26 338H897.738Z" fill="#DDDDDD"/>
<path d="M497.625 338C502.84 319.986 508.37 300.945 514.217 280.877C520.064 260.65 525.594 241.609 530.809 223.753L564.467 107.61C570.629 86.4357 576.16 67.4736 581.058 50.7237C585.957 33.9738 590.855 17.0659 595.754 0H744.133C749.347 18.014 754.404 35.396 759.302 52.1459C764.201 68.8958 769.574 87.3839 775.42 107.61L809.078 223.753C814.609 242.399 820.218 261.598 825.907 281.351C831.596 301.103 837.047 319.986 842.262 338H722.326C719.008 322.04 715.61 305.685 712.134 288.936C708.816 272.028 705.576 256.147 702.416 241.293L672.551 96.2328H664.966L634.626 239.397C631.308 255.041 627.832 271.475 624.197 288.698C620.563 305.922 617.086 322.356 613.768 338H497.625ZM599.546 283.01L612.82 197.68H741.762L752.666 283.01H599.546Z" fill="#DDDDDD"/>
<path d="M0 338C2.21225 321.092 4.34549 303.868 6.39972 286.328C8.61197 268.788 10.9822 249.826 13.5105 229.442L27.9691 114.247C30.4974 94.0206 32.8677 74.6634 35.0799 56.1753C37.4502 37.5292 39.8205 18.8041 42.1907 0H159.756C164.813 14.2216 169.553 27.5741 173.978 40.0575C178.402 52.3829 182.827 64.6293 187.251 76.7967L213.324 149.801H220.435L244.137 77.0337C248.246 64.7083 252.196 52.6199 255.989 40.7686C259.939 28.9173 264.364 15.3277 269.262 0H384.931C387.46 18.6461 389.909 37.2132 392.279 55.7013C394.807 74.1894 397.415 93.8626 400.101 114.721L415.271 229.679C417.957 250.379 420.406 269.341 422.619 286.565C424.989 303.631 427.28 320.776 429.492 338H319.038C316.984 321.092 315.008 305.132 313.112 290.121C311.216 274.951 309.399 260.65 307.661 247.219L300.55 190.095H292.965L278.269 251.248C274.635 266.576 271 281.509 267.366 296.046C263.89 310.584 260.571 324.569 257.411 338H181.088C178.086 328.835 175.005 319.433 171.844 309.794C168.684 300.155 165.524 290.437 162.363 280.64C159.203 270.684 155.964 260.808 152.645 251.011L132.735 190.095H125.15L118.276 246.508C116.696 260.097 114.958 274.556 113.062 289.884C111.166 305.211 109.19 321.25 107.136 338H0Z" fill="#DDDDDD"/>
</svg>
