<svg width="425" height="89" viewBox="0 0 425 89" fill="none" xmlns="http://www.w3.org/2000/svg">
<path d="M388.803 88.6884C387.394 85.1226 386.046 81.7641 384.761 78.613C383.475 75.4204 382.211 72.29 380.967 69.2217L374.872 54.1086H369.523V30.5994H374.374L380.345 18.6581C381.796 15.7972 383.227 12.9363 384.636 10.0754C386.088 7.21449 387.767 3.85602 389.674 0H424.005C420.978 4.64381 417.993 9.24615 415.049 13.807C412.105 18.3679 409.12 22.991 406.093 27.6763L394.65 45.4015L394.028 31.9676L406.715 55.2281C408.664 58.7524 410.758 62.567 412.997 66.6718C415.236 70.7766 417.413 74.7777 419.527 78.6752C421.642 82.5312 423.466 85.8689 425 88.6884H388.803ZM341.039 88.6884C341.039 84.086 341.039 79.6081 341.039 75.2545C341.039 70.8595 341.039 65.8425 341.039 60.2036V29.7286C341.039 23.7995 341.039 18.5545 341.039 13.9936C341.039 9.43273 341.039 4.76819 341.039 0H371.514C371.514 4.76819 371.514 9.43273 371.514 13.9936C371.514 18.5545 371.514 23.7995 371.514 29.7286V60.2036C371.514 65.8425 371.514 70.8595 371.514 75.2545C371.514 79.6081 371.514 84.086 371.514 88.6884H341.039Z" fill="#DDDDDD" fill-opacity="0.3"/>
<path d="M235.559 88.6884C236.761 86.4079 238.171 83.7543 239.788 80.7276C241.405 77.7008 243.064 74.5911 244.764 71.3985C246.464 68.1644 248.06 65.1584 249.553 62.3804L259.193 44.282L271.321 54.233C266.179 54.233 261.722 53.6318 257.949 52.4294C254.176 51.1855 251.045 49.4234 248.558 47.1429C246.111 44.821 244.266 42.0223 243.022 38.7468C241.82 35.4712 241.219 31.781 241.219 27.6763C241.219 20.4203 242.691 14.8021 245.634 10.8217C248.578 6.79986 252.808 4.00114 258.322 2.42556C263.878 0.808519 270.533 0 278.286 0C282.681 0 287.304 0 292.155 0C297.048 0 301.692 0 306.087 0C310.482 0 314.172 0 317.157 0C317.157 4.76819 317.157 9.43273 317.157 13.9936C317.157 18.5545 317.157 23.7995 317.157 29.7286V60.2036C317.157 65.8425 317.157 70.8595 317.157 75.2545C317.157 79.6081 317.157 84.086 317.157 88.6884H287.18C287.18 84.086 287.18 79.6081 287.18 75.2545C287.18 70.8595 287.18 65.8425 287.18 60.2036V34.7042C287.18 28.775 287.18 23.53 287.18 18.9691C287.18 14.4082 287.18 9.7437 287.18 4.97551L302.977 22.8873H279.157C278.12 22.8873 277.208 23.0739 276.42 23.4471C275.633 23.7788 274.948 24.2971 274.368 25.0019C273.829 25.7068 273.414 26.5568 273.124 27.5519C272.834 28.547 272.689 29.6872 272.689 30.9725C272.689 34.3725 273.394 36.5907 274.803 37.6273C276.255 38.6638 277.913 39.1821 279.779 39.1821H292.777V57.4671H271.88L289.295 46.2722L277.416 71.1497C276.089 73.9277 274.741 76.7472 273.373 79.6081C272.005 82.469 270.553 85.4958 269.019 88.6884H235.559Z" fill="#DDDDDD" fill-opacity="0.3"/>
<path d="M130.573 88.6884C131.941 83.9617 133.392 78.9654 134.926 73.6997C136.46 68.3925 137.912 63.3962 139.28 58.711L148.111 28.236C149.728 22.68 151.18 17.7045 152.465 13.3095C153.75 8.91445 155.036 4.47796 156.321 0H195.254C196.623 4.72673 197.949 9.28762 199.235 13.6826C200.52 18.0777 201.93 22.9288 203.464 28.236L212.295 58.711C213.747 63.6036 215.219 68.6413 216.711 73.8241C218.204 79.0069 219.634 83.9617 221.003 88.6884H189.532C188.662 84.5007 187.77 80.2093 186.858 75.8143C185.987 71.3778 185.137 67.2108 184.308 63.3133L176.472 25.2507H174.482L166.521 62.8158C165.65 66.9206 164.738 71.2327 163.784 75.7521C162.831 80.2715 161.918 84.5836 161.048 88.6884H130.573ZM157.316 74.2594L160.799 51.8697H194.632L197.493 74.2594H157.316Z" fill="#DDDDDD" fill-opacity="0.3"/>
<path d="M0 88.6884C0.580476 84.2519 1.14022 79.7325 1.67923 75.1301C2.25971 70.5278 2.88165 65.5523 3.54505 60.2036L7.33887 29.9774C8.00227 24.6702 8.62421 19.5911 9.20468 14.7399C9.82662 9.84736 10.4486 4.93405 11.0705 0H41.9186C43.2454 3.73163 44.4893 7.23522 45.6503 10.5108C46.8112 13.7448 47.9722 16.9582 49.1331 20.1508L55.9744 39.3065H57.8402L64.0596 20.213C65.1376 16.9789 66.1742 13.807 67.1693 10.6973C68.2059 7.58765 69.3668 4.02187 70.6522 0H101.003C101.666 4.89258 102.309 9.76443 102.931 14.6155C103.594 19.4667 104.278 24.6288 104.983 30.1018L108.964 60.2658C109.668 65.6974 110.311 70.6729 110.892 75.1923C111.514 79.6703 112.115 84.169 112.695 88.6884H83.7129C83.1739 84.2519 82.6556 80.0642 82.158 76.1252C81.6605 72.1448 81.1837 68.3925 80.7276 64.8682L78.8617 49.8795H76.8716L73.0155 65.9255C72.0619 69.9473 71.1083 73.8655 70.1546 77.6801C69.2424 81.4946 68.3717 85.1641 67.5425 88.6884H47.5161C46.7283 86.2836 45.9198 83.8165 45.0905 81.2873C44.2613 78.7581 43.432 76.2082 42.6028 73.6375C41.7735 71.0254 40.9235 68.4339 40.0528 65.8633L34.8285 49.8795H32.8383L31.0347 64.6816C30.6201 68.2474 30.164 72.0412 29.6664 76.063C29.1689 80.0849 28.6506 84.2934 28.1116 88.6884H0Z" fill="#DDDDDD" fill-opacity="0.3"/>
</svg>
