<svg xmlns="http://www.w3.org/2000/svg" width="512" height="512" viewBox="0 0 512 512" fill="none"><g clip-path="url(#clip0_435_45803)">
<rect x="18.5507" y="18.5507" width="474.899" height="474.899" rx="18.5507" stroke="#B4302F" stroke-width="37.1014"></rect>
<path d="M79.6168 224.801C76.4125 225.698 74.1973 228.619 74.1973 231.946V438.433C74.1973 440.401 74.979 442.288 76.3706 443.68L83.1543 450.464C84.5459 451.855 86.4333 452.637 88.4013 452.637H174.371C178.469 452.637 181.791 449.315 181.791 445.217V215.188C181.791 212.852 180.692 210.653 178.823 209.252L169.879 202.543C168.033 201.159 165.648 200.712 163.426 201.334L79.6168 224.801Z" fill="#8D1A1C"></path>
<path d="M79.6168 224.801C76.4125 225.698 74.1973 228.619 74.1973 231.946V434.086C74.1973 438.185 77.5194 441.507 81.6176 441.507H159.531C163.629 441.507 166.951 438.185 166.951 434.086V210.131C166.951 205.217 162.261 201.66 157.53 202.985L79.6168 224.801Z" fill="#B42F2D"></path>
<path d="M206.5 187.701C203.295 188.598 201.08 191.519 201.08 194.846V438.434C201.08 440.402 201.862 442.29 203.253 443.681L210.037 450.465C211.429 451.857 213.316 452.638 215.284 452.638H301.254C305.352 452.638 308.674 449.316 308.674 445.218V178.088C308.674 175.752 307.575 173.553 305.706 172.151L296.762 165.443C294.916 164.059 292.531 163.612 290.309 164.234L206.5 187.701Z" fill="#8D1A1C"></path>
<path d="M206.5 187.701C203.295 188.598 201.08 191.519 201.08 194.846V434.088C201.08 438.186 204.402 441.508 208.5 441.508H286.413C290.512 441.508 293.834 438.186 293.834 434.088V173.03C293.834 168.117 289.144 164.56 284.413 165.885L206.5 187.701Z" fill="#B42F2D"></path>
<path d="M333.384 150.598C330.18 151.495 327.965 154.416 327.965 157.744V438.433C327.965 440.401 328.747 442.289 330.138 443.68L336.922 450.464C338.314 451.856 340.201 452.637 342.169 452.637H428.139C432.237 452.637 435.559 449.315 435.559 445.217V140.985C435.559 138.65 434.459 136.45 432.591 135.049L423.647 128.341C421.801 126.956 419.416 126.509 417.194 127.132L333.384 150.598Z" fill="#8D1A1C"></path>
<path d="M333.384 150.598C330.18 151.495 327.965 154.416 327.965 157.744V434.087C327.965 438.185 331.287 441.507 335.385 441.507H413.298C417.396 441.507 420.718 438.185 420.718 434.087V135.928C420.718 131.015 416.029 127.458 411.297 128.783L333.384 150.598Z" fill="#B42F2D"></path>
<path d="M81.6176 66.7833C77.5194 66.7833 74.1973 70.1055 74.1973 74.2036V201.235C74.1973 206.285 79.1325 209.86 83.9309 208.285L430.937 94.43C433.984 93.4302 436.044 90.5863 436.044 87.3795V74.2036C436.044 70.1055 432.722 66.7833 428.624 66.7833H81.6176Z" fill="#8D1A1C"></path>
<path d="M81.6176 66.7833C77.5194 66.7833 74.1973 70.1055 74.1973 74.2036V182.752C74.1973 187.782 79.0969 191.355 83.8864 189.817L427.865 79.3489C430.528 78.4937 432.334 76.017 432.334 73.2202C432.334 69.6652 429.452 66.7833 425.897 66.7833H81.6176Z" fill="#B42F2D"></path>
</g><defs>
<clipPath id="clip0_435_45803">
<rect width="512" height="512" fill="white"></rect>
</clipPath>
</defs></svg>