<svg width="1398" height="339" viewBox="0 0 1398 339" fill="none" xmlns="http://www.w3.org/2000/svg">
<path d="M741.563 296.484C741.784 296.318 742.098 296.363 742.263 296.584C743.379 298.072 744.506 299.373 745.615 300.8C746.7 302.196 747.71 303.645 748.472 305.294L748.746 305.875C754.293 318.121 747.005 332.623 733.295 334.12L733.291 334.121C694.848 338.067 656.112 340.539 617.362 334.364H617.36C610.934 333.312 605.755 331.931 601.799 330.085C597.841 328.238 595.074 325.908 593.529 322.944C591.982 319.977 591.697 316.446 592.559 312.271C593.421 308.102 595.432 303.259 598.523 297.629C598.656 297.387 598.961 297.299 599.203 297.432C599.444 297.565 599.533 297.869 599.4 298.111C596.331 303.7 594.371 308.443 593.539 312.473C592.707 316.497 593.006 319.777 594.416 322.482C595.827 325.189 598.389 327.39 602.222 329.179C606.059 330.97 611.136 332.332 617.521 333.376C656.134 339.529 694.76 337.07 733.186 333.126L733.799 333.05C746.575 331.247 753.259 317.35 747.574 305.734L747.569 305.724C746.853 304.172 745.894 302.788 744.826 301.413C743.779 300.067 742.566 298.654 741.464 297.184C741.298 296.963 741.342 296.649 741.563 296.484Z" fill="#510504"/>
<path d="M610.69 215.517C650.145 207.62 689.357 208.767 728.759 214.231L732.573 214.773L732.649 214.789C732.821 214.843 732.954 214.986 732.991 215.166C734.715 223.545 736.437 230.934 738.41 239.817C738.446 239.981 738.397 240.153 738.28 240.274C738.162 240.394 737.991 240.448 737.826 240.416C730.148 238.929 725.031 237.706 719.599 236.718C719.328 236.669 719.148 236.409 719.197 236.137C719.247 235.865 719.507 235.685 719.779 235.735C725.007 236.686 730.071 237.878 737.265 239.285C735.391 230.864 733.736 223.724 732.083 215.712C691.693 209.858 651.573 208.407 611.223 216.431C609.823 224.636 608.851 231.341 607.461 239.071C645.699 232.783 681.995 234.258 718.48 235.974C718.756 235.987 718.97 236.221 718.957 236.496C718.944 236.772 718.709 236.985 718.433 236.972C681.719 235.246 645.304 233.77 606.928 240.171C606.768 240.198 606.604 240.145 606.49 240.03C606.376 239.914 606.325 239.749 606.354 239.589C607.833 231.449 608.813 224.576 610.296 215.923L610.314 215.848C610.371 215.68 610.513 215.552 610.69 215.517Z" fill="#510504"/>
<path d="M629.885 214.783C630.152 214.853 630.313 215.126 630.244 215.393C629.382 218.718 628.582 221.982 627.781 225.249C626.98 228.516 626.179 231.786 625.316 235.118C625.247 235.386 624.974 235.547 624.707 235.478C624.44 235.409 624.279 235.136 624.348 234.868C625.21 231.543 626.009 228.278 626.81 225.011C627.611 221.745 628.412 218.474 629.275 215.142C629.344 214.875 629.618 214.714 629.885 214.783Z" fill="#510504"/>
<path d="M714.636 214.783C714.903 214.715 715.176 214.875 715.246 215.142C716.109 218.474 716.91 221.745 717.711 225.011C718.511 228.279 719.312 231.543 720.174 234.868C720.242 235.135 720.081 235.408 719.814 235.478C719.547 235.547 719.274 235.386 719.205 235.118C718.342 231.786 717.54 228.516 716.74 225.249C715.939 221.982 715.138 218.718 714.277 215.393C714.208 215.126 714.369 214.853 714.636 214.783Z" fill="#510504"/>
<path d="M671.644 212.302C671.92 212.302 672.144 212.526 672.144 212.802V233.761C672.144 234.037 671.92 234.261 671.644 234.261C671.368 234.261 671.144 234.037 671.144 233.761V212.802C671.144 212.526 671.368 212.302 671.644 212.302Z" fill="#510504"/>
<path fill-rule="evenodd" clip-rule="evenodd" d="M562.005 153.864C578.473 153.864 591.824 167.225 591.824 183.705C591.824 200.186 578.474 213.548 562.005 213.548C554.402 213.548 547.467 210.699 542.2 206.013L541.649 205.596L541.686 205.545C535.842 200.097 532.185 192.329 532.185 183.705C532.186 167.225 545.536 153.864 562.005 153.864ZM555.691 211.852C557.723 212.306 559.836 212.548 562.005 212.548C565.466 212.548 568.785 211.936 571.86 210.817L561.362 193.305C560.158 193.225 559.016 192.924 557.973 192.442L555.691 211.852ZM543.036 205.418C546.347 208.318 550.326 210.471 554.713 211.615L557.025 191.94C556.155 191.412 555.377 190.748 554.716 189.98L543.036 205.418ZM567.775 191.404C566.299 192.513 564.494 193.207 562.533 193.314L572.807 210.45C579.218 207.854 584.482 203.018 587.631 196.91L567.775 191.404ZM534.335 191.791C535.796 196.81 538.584 201.262 542.293 204.744L554.083 189.159C553.258 187.962 552.698 186.569 552.485 185.064L534.335 191.791ZM570.75 187.704C570.247 188.803 569.546 189.79 568.689 190.619L588.081 195.997C589.839 192.268 590.824 188.102 590.824 183.705C590.824 182.496 590.749 181.305 590.604 180.135L570.75 187.704ZM562.005 175.082C560.168 175.082 558.465 175.659 557.067 176.64L557.394 176.908L557.077 177.295L556.759 177.681L556.265 177.275C554.5 178.854 553.389 181.149 553.388 183.705C553.388 183.895 553.396 184.084 553.408 184.271L553.555 184.667L553.448 184.706C553.603 186.049 554.066 187.297 554.764 188.379L555.106 188.637L555.505 188.939L555.334 189.163C556.901 191.079 559.275 192.307 561.937 192.327L561.941 192.325L561.942 192.327C561.963 192.328 561.984 192.329 562.005 192.329C565.603 192.329 568.685 190.12 569.974 186.983L569.957 186.937L569.999 186.92C570.398 185.927 570.621 184.842 570.621 183.705C570.621 183.151 570.566 182.609 570.466 182.084L570.252 181.897L570.392 181.736C569.502 177.923 566.085 175.082 562.005 175.082ZM533.523 179.278C533.301 180.721 533.185 182.2 533.185 183.705C533.185 186.161 533.493 188.546 534.07 190.823L552.396 184.03C552.393 183.922 552.388 183.814 552.388 183.705C552.388 182.384 552.655 181.125 553.136 179.979L533.523 179.278ZM568.996 177.102C569.985 178.151 570.743 179.421 571.183 180.832L584.296 165.869L584.672 166.199L585.048 166.529L571.47 182.022C571.567 182.569 571.621 183.131 571.621 183.705C571.621 184.661 571.478 185.583 571.219 186.454L590.46 179.12C588.982 169.865 583.106 162.079 575.043 157.978L568.996 177.102ZM540.593 164.4C537.138 168.235 534.698 173.005 533.695 178.283L553.619 178.995C554.115 178.113 554.746 177.315 555.484 176.633L540.593 164.4ZM562.005 154.864C558.376 154.864 554.905 155.536 551.707 156.761L552.036 157.302C552.319 157.768 552.724 158.435 553.209 159.237C554.179 160.84 555.472 162.983 556.766 165.141C558.06 167.299 559.355 169.474 560.327 171.141C560.812 171.974 561.219 172.683 561.505 173.2C561.647 173.458 561.762 173.673 561.842 173.834C561.882 173.914 561.917 173.988 561.943 174.049C561.948 174.06 561.951 174.072 561.956 174.083C561.972 174.083 561.988 174.082 562.005 174.082C563.022 174.082 564.003 174.241 564.924 174.534L564.216 155.121L565.215 155.084L565.939 174.925C566.755 175.292 567.511 175.768 568.187 176.337L574.093 157.664L574.57 157.816L574.97 157.942C571.073 155.973 566.668 154.864 562.005 154.864ZM550.766 157.138C547.171 158.663 543.95 160.899 541.277 163.668L556.266 175.982C557.584 175 559.162 174.35 560.878 174.15C560.812 174.024 560.731 173.867 560.63 173.684C560.349 173.177 559.947 172.475 559.463 171.644C558.494 169.982 557.202 167.811 555.909 165.655C554.616 163.498 553.323 161.356 552.353 159.754C551.868 158.953 551.464 158.287 551.181 157.821C551.04 157.588 550.928 157.404 550.852 157.28C550.815 157.218 550.786 157.17 550.766 157.138Z" fill="#510504"/>
<path fill-rule="evenodd" clip-rule="evenodd" d="M752.914 155.431C768.62 143.224 790.799 144.955 802.802 155.466L802.806 155.47C816.761 167.939 821.277 187.44 810.285 204.443C802.293 216.938 789.18 222.306 776.494 221.869C763.819 221.433 751.513 215.2 745.129 204.426C744.387 203.188 743.686 201.776 742.969 200.48C742.239 199.16 741.469 197.915 740.54 196.896C739.615 195.882 738.541 195.102 737.204 194.699C735.866 194.295 734.22 194.255 732.133 194.792C731.999 194.827 731.865 194.803 731.755 194.739C744.923 209.528 751.805 228.481 752.742 247.421C753.949 271.833 745.284 296.28 727.409 311.809L727.408 311.81C701.342 334.417 669.584 331.65 639.753 324.989C619.11 320.384 604.523 305.389 596.622 286.567C588.723 267.75 587.486 245.069 593.555 224.986C597.112 213.224 603.463 203.781 611.021 195.235C608.521 194.172 606.492 193.88 604.804 194.099C603.108 194.319 601.711 195.06 600.493 196.132C599.268 197.21 598.229 198.62 597.257 200.165C596.273 201.729 595.409 203.342 594.463 204.92L594.464 204.921C585.206 220.445 562.25 227.167 544.537 218.428L544.534 218.427C529.058 210.683 521.574 195.928 523.318 178.478V178.473C523.951 172.777 527.784 166.025 532.771 160.352C537.76 154.677 543.999 149.972 549.553 148.456L549.557 148.455C566.226 144.04 583.422 149.517 592.778 162.815L593.217 163.454L593.22 163.459C595.84 167.454 598.068 171.498 601.122 174.372C604.033 177.113 607.682 178.767 613.138 178.105L613.673 178.032C617.774 177.411 622.15 177.533 626.292 177.381C630.469 177.227 634.445 176.796 637.919 175.118L637.924 175.116C652.407 168.303 666.297 165.752 679.736 167.181C693.173 168.61 706.127 174.013 718.748 183.052C723.529 186.47 727.794 190.322 731.552 194.51C731.542 194.485 731.531 194.46 731.524 194.433C731.456 194.166 731.616 193.893 731.883 193.824C734.107 193.252 735.943 193.274 737.492 193.741C739.042 194.209 740.263 195.109 741.278 196.222C742.288 197.329 743.104 198.657 743.844 199.995C744.597 201.356 745.253 202.688 745.988 203.914L745.989 203.916C752.17 214.348 764.134 220.444 776.528 220.87C788.911 221.297 801.668 216.063 809.444 203.903L809.445 203.9C820.132 187.369 815.781 168.407 802.144 156.219L801.591 155.747C789.826 145.973 768.601 144.487 753.505 156.238C753.495 156.245 753.484 156.252 753.474 156.259C752.011 157.235 750.627 158.408 749.949 159.765C746.708 167.115 742.083 172.19 736.348 175.389C730.614 178.588 723.805 179.891 716.231 179.767C715.955 179.762 715.735 179.535 715.74 179.259C715.745 178.983 715.972 178.763 716.248 178.768C723.702 178.89 730.323 177.605 735.861 174.516C741.392 171.431 745.88 166.525 749.044 159.34L749.054 159.318C749.854 157.718 751.423 156.426 752.914 155.431ZM591.961 163.391C582.874 150.477 566.131 145.1 549.816 149.42L549.817 149.421C544.531 150.864 538.45 155.407 533.522 161.012C528.595 166.617 524.914 173.177 524.312 178.576C522.607 195.646 529.905 209.987 544.979 217.532L545.793 217.92C562.948 225.845 584.771 219.224 593.605 204.408C594.507 202.905 595.43 201.189 596.41 199.632C597.401 198.057 598.502 196.554 599.833 195.382C601.171 194.205 602.747 193.358 604.676 193.108C606.601 192.858 608.833 193.208 611.478 194.342C611.561 194.378 611.627 194.434 611.677 194.501C616.074 189.603 620.855 184.987 625.72 180.384C625.921 180.195 626.238 180.203 626.427 180.404C626.617 180.604 626.608 180.92 626.408 181.11C612.853 193.935 600.137 206.677 594.512 225.275C588.51 245.137 589.737 267.579 597.545 286.18C605.351 304.776 619.714 319.493 639.97 324.012C669.763 330.665 701.078 333.323 726.753 311.054L727.571 310.331C744.622 295.008 752.919 271.256 751.743 247.47C750.548 223.312 739.583 199.175 718.167 183.865C705.657 174.906 692.863 169.582 679.63 168.175C666.399 166.769 652.694 169.272 638.353 176.018L638.354 176.019C634.683 177.793 630.528 178.226 626.329 178.38C622.095 178.536 617.848 178.411 613.82 179.022L613.817 179.023C607.746 179.909 603.652 178.128 600.436 175.101C597.27 172.12 594.941 167.906 592.387 164.012L591.961 163.391Z" fill="#510504"/>
<path fill-rule="evenodd" clip-rule="evenodd" d="M1395.42 266.554C1395.59 266.581 1395.74 266.697 1395.8 266.863C1396.06 267.51 1396.25 268.217 1396.44 268.889C1396.62 269.573 1396.8 270.223 1397.04 270.808C1397.14 271.064 1397.01 271.355 1396.76 271.457C1394.31 272.438 1391.91 273.823 1389.4 275.021C1386.92 276.197 1384.37 277.162 1381.8 277.163L1381.8 277.164C1365.41 277.411 1334.96 277.411 1304.51 277.411C1275.97 277.411 1247.43 277.411 1230.48 277.615L1227.24 277.658C1226.16 277.675 1225.08 277.695 1224 277.713V279.5C1224 285.575 1219.07 290.5 1213 290.5C1206.92 290.5 1202 285.575 1202 279.5V278.138C1164.84 278.943 1127.68 280.149 1090.51 281.356L1090.51 281.357C1074 281.807 1057.5 282.168 1041 282.658V284.5C1041 290.575 1036.07 295.5 1030 295.5C1023.92 295.5 1019 290.575 1019 284.5V283.408C1015.74 283.536 1012.47 283.673 1009.21 283.822C969.789 285.548 930.372 287.274 890.959 289.986C881.973 290.606 872.986 291.288 864 292.026V293.5C864 299.575 859.075 304.5 853 304.5C847.07 304.5 842.238 299.809 842.009 293.936C822.608 295.708 803.206 297.704 783.803 299.847C772.519 301.074 761.775 305.238 750.616 308.216C750.349 308.287 750.075 308.128 750.004 307.862C749.933 307.595 750.092 307.321 750.358 307.25C761.372 304.311 772.311 300.091 783.693 298.853L790.393 298.118C823.89 294.479 857.39 291.3 890.89 288.988C930.318 286.275 969.746 284.549 1009.17 282.823L1014.25 282.6C1039.66 281.527 1065.08 281.05 1090.48 280.357L1107.57 279.803C1147.45 278.519 1187.34 277.305 1227.23 276.658L1230.46 276.615C1247.42 276.411 1275.97 276.411 1304.51 276.411C1334.96 276.411 1365.4 276.411 1381.78 276.164H1381.79C1384.14 276.164 1386.51 275.283 1388.97 274.117C1391.23 273.042 1393.6 271.694 1395.94 270.713C1395.76 270.201 1395.61 269.667 1395.47 269.153C1395.32 268.589 1395.17 268.048 1394.99 267.548H752.951C752.675 267.548 752.451 267.324 752.451 267.048C752.451 266.772 752.675 266.548 752.951 266.548H1395.34L1395.42 266.554ZM863 292.11C856.336 292.659 849.672 293.238 843.008 293.844C843.189 299.208 847.592 303.5 853 303.5C858.522 303.5 863 299.023 863 293.5V292.11ZM1040 282.687C1033.33 282.887 1026.67 283.109 1020 283.368V284.5C1020 290.023 1024.48 294.5 1030 294.5C1035.52 294.5 1040 290.023 1040 284.5V282.687ZM1223 277.73C1216.33 277.845 1209.67 277.974 1203 278.117V279.5C1203 285.023 1207.48 289.5 1213 289.5C1218.52 289.5 1223 285.023 1223 279.5V277.73Z" fill="#510504"/>
<path fill-rule="evenodd" clip-rule="evenodd" d="M589.106 266.548C589.382 266.548 589.606 266.772 589.606 267.048C589.606 267.324 589.382 267.548 589.106 267.548H1.25165C3.14904 271.911 5.65639 274.095 8.50458 275.213C11.5416 276.405 15.0143 276.411 18.7321 276.411C51.983 276.411 85.2584 275.918 118.524 276.411H118.527C178.399 277.644 238.52 279.124 298.394 281.343C349.396 283.316 400.156 285.535 451.163 288.741C486.901 290.96 522.637 294.66 558.364 298.606C569.99 299.844 581.418 304.062 592.926 307.002C593.194 307.071 593.355 307.343 593.287 307.611C593.218 307.878 592.946 308.039 592.678 307.971C581.028 304.994 569.789 300.828 558.256 299.6H558.254C531.165 296.608 504.08 293.761 476.999 291.591C476.993 297.875 472.09 303 466 303C459.906 303 455 297.869 455 291.58V289.989C453.7 289.904 452.401 289.82 451.101 289.74C400.654 286.569 350.446 284.363 300 282.407V283.58C300 289.869 295.093 295 289 295C282.906 295 278 289.869 278 283.58V281.616C224.872 279.791 171.593 278.505 118.507 277.411C117.671 277.399 116.835 277.388 116 277.377V278.58C116 284.869 111.093 290 105 290C98.9063 290 93.9997 284.869 93.9997 278.58V277.203C68.9147 277.13 43.8302 277.411 18.7321 277.411C15.0586 277.411 11.385 277.418 8.13934 276.144C4.85057 274.853 2.04993 272.273 0.0358263 267.234C-0.0256564 267.08 -0.00733534 266.905 0.085631 266.768C0.178676 266.631 0.333937 266.548 0.499694 266.548H589.106ZM456 291.58C456 297.354 460.495 302 466 302C471.504 302 476 297.354 476 291.58H476.855C469.903 291.024 462.951 290.512 456 290.054V291.58ZM279 283.58C279 289.354 283.495 294 289 294C294.504 294 299 289.354 299 283.58V282.366C298.785 282.358 298.571 282.35 298.356 282.342C291.907 282.103 285.454 281.873 279 281.651V283.58ZM94.9997 278.58C94.9997 284.354 99.4952 289 105 289C110.504 289 115 284.354 115 278.58V277.365C108.333 277.279 101.666 277.229 94.9997 277.207V278.58Z" fill="#510504"/>
<path fill-rule="evenodd" clip-rule="evenodd" d="M778.328 153.864C794.797 153.864 808.147 167.225 808.147 183.705C808.147 200.186 794.797 213.548 778.328 213.548C761.859 213.548 748.508 200.186 748.508 183.705C748.509 167.225 761.859 153.864 778.328 153.864ZM772.024 211.854C774.053 212.307 776.162 212.548 778.328 212.548C781.865 212.548 785.254 211.909 788.385 210.741L777.94 193.319C776.729 193.271 775.577 192.999 774.521 192.543L772.024 211.854ZM759.503 205.543C762.787 208.382 766.718 210.49 771.046 211.617L773.573 192.069C772.616 191.523 771.763 190.818 771.048 189.989L759.503 205.543ZM784.099 191.403C782.683 192.468 780.962 193.149 779.091 193.296L789.328 210.37C795.67 207.747 800.872 202.925 803.985 196.853L784.099 191.403ZM750.658 191.791C752.138 196.872 754.977 201.373 758.755 204.873L770.412 189.168C769.584 187.969 769.021 186.572 768.808 185.063L750.658 191.791ZM787.022 187.818C786.524 188.87 785.841 189.817 785.014 190.617L804.431 195.938C806.172 192.224 807.147 188.079 807.147 183.705C807.147 182.527 807.074 181.366 806.937 180.225L787.022 187.818ZM778.328 175.082C776.491 175.082 774.789 175.659 773.39 176.64L773.717 176.908L773.4 177.295L773.083 177.681L772.589 177.275C771.814 177.968 771.166 178.799 770.682 179.73L770.673 180.014L770.542 180.009C770.01 181.129 769.712 182.383 769.712 183.705C769.712 183.896 769.72 184.086 769.732 184.274L769.879 184.667L769.771 184.706C769.927 186.053 770.392 187.304 771.094 188.388L771.831 188.935L771.659 189.165C773.239 191.096 775.64 192.329 778.328 192.329C783.086 192.329 786.944 188.468 786.944 183.705C786.944 178.943 783.086 175.082 778.328 175.082ZM749.846 179.278C749.624 180.721 749.509 182.2 749.508 183.705C749.508 186.161 749.816 188.546 750.393 190.823L768.719 184.03C768.716 183.922 768.712 183.814 768.712 183.705C768.712 182.381 768.979 181.119 769.463 179.971L749.846 179.278ZM787.836 182.256C787.907 182.729 787.944 183.213 787.944 183.705C787.944 184.699 787.792 185.658 787.512 186.56L806.798 179.209C806.068 174.546 804.223 170.253 801.543 166.614L787.836 182.256ZM785.502 177.3C786.45 178.363 787.164 179.637 787.568 181.044L800.866 165.869L801.206 166.167C798.637 162.817 795.352 160.046 791.578 158.087L785.502 177.3ZM756.917 164.401C753.462 168.236 751.023 173.005 750.019 178.283L769.948 178.987C770.443 178.107 771.071 177.313 771.807 176.633L756.917 164.401ZM778.328 154.864C774.775 154.864 771.373 155.508 768.23 156.685C768.244 156.707 768.26 156.733 768.277 156.761C768.353 156.886 768.465 157.069 768.606 157.302C768.889 157.768 769.293 158.435 769.778 159.237C770.748 160.84 772.043 162.983 773.337 165.141C774.63 167.299 775.925 169.474 776.897 171.141C777.383 171.974 777.789 172.683 778.075 173.2C778.217 173.458 778.332 173.673 778.413 173.834C778.453 173.914 778.488 173.988 778.513 174.049C778.518 174.061 778.522 174.074 778.527 174.087C779.478 174.107 780.395 174.262 781.258 174.538L780.785 155.115L781.285 155.103L781.785 155.091L782.267 174.928C783.16 175.33 783.981 175.863 784.705 176.505L790.663 157.664L790.863 157.728C787.073 155.893 782.82 154.864 778.328 154.864ZM767.506 156.967C763.743 158.494 760.377 160.793 757.601 163.667L772.591 175.982C773.968 174.956 775.629 174.291 777.434 174.124C777.371 174.003 777.293 173.855 777.199 173.684C776.919 173.177 776.517 172.475 776.033 171.644C775.064 169.982 773.772 167.811 772.479 165.655C771.186 163.498 769.892 161.357 768.923 159.754C768.438 158.953 768.034 158.287 767.751 157.821C767.609 157.588 767.498 157.404 767.423 157.28C767.385 157.217 767.355 157.17 767.336 157.138C767.326 157.122 767.319 157.109 767.314 157.101C767.312 157.097 767.31 157.094 767.308 157.092L767.307 157.09L767.306 157.089C767.309 157.087 767.33 157.074 767.506 156.967Z" fill="#510504"/>
<path d="M670 0.218038C670.116 0.0481579 670.328 -0.0364511 670.534 0.0149134C671.221 0.186809 671.913 0.231038 672.635 0.242453L673.369 0.246359L673.466 0.256124C673.684 0.298793 673.852 0.483728 673.868 0.713156C674.238 6.2641 674.546 11.8153 674.854 17.3626C675.162 22.9109 675.47 28.4566 675.84 34.0012C675.858 34.2766 675.649 34.5149 675.374 34.5335C675.098 34.5518 674.86 34.3432 674.841 34.0676C674.472 28.5166 674.163 22.9656 673.855 17.4182C673.556 12.0248 673.256 6.63425 672.9 1.24441C672.192 1.24015 671.454 1.21627 670.708 1.07546C667.83 7.76006 667.59 14.8096 667.801 22.0305C668.016 29.3536 668.699 36.8902 667.457 44.2278L667.456 44.2317C664.775 59.3543 664.028 74.9227 662.094 92.511C665.009 92.7506 667.926 93.0403 670.892 93.3313C673.846 93.6212 676.851 93.9086 679.96 94.1468C678.012 73.6585 676.304 54.6055 674.595 35.3118C674.571 35.037 674.775 34.7943 675.049 34.7698C675.324 34.7456 675.568 34.9483 675.592 35.2229C677.317 54.702 679.042 73.9342 681.012 94.6448C681.026 94.7913 680.975 94.9371 680.872 95.0423C680.769 95.1474 680.624 95.2015 680.477 95.1907C677.145 94.9436 673.936 94.6347 670.795 94.3264C668.267 94.0785 665.784 93.8319 663.31 93.6165C663.269 93.6459 663.224 93.6724 663.174 93.6887C650.208 97.8509 640.016 105.164 635.404 118.038L635.403 118.042C632.231 126.71 631.876 134.672 634.118 141.949C636.36 149.226 641.214 155.865 648.545 161.859C649.685 162.746 650.754 163.817 651.774 164.901C652.805 165.995 653.772 167.084 654.752 168.065C654.947 168.26 654.946 168.577 654.752 168.772C654.556 168.967 654.239 168.967 654.044 168.772C653.052 167.78 652.048 166.649 651.047 165.586C650.035 164.512 649.009 163.487 647.931 162.649L647.922 162.641C640.475 156.554 635.477 149.757 633.162 142.243C630.846 134.725 631.23 126.537 634.464 117.699C639.009 105.012 648.822 97.6177 661.177 93.305C661.171 93.298 661.163 93.2919 661.157 93.2844C661.071 93.1802 661.031 93.0448 661.046 92.9104C663.012 75.2018 663.758 59.3632 666.471 44.0569C667.691 36.8483 667.019 29.4679 666.802 22.0598C666.587 14.6819 666.827 7.30962 669.956 0.296163L670 0.218038Z" fill="#510504"/>
<path d="M682.272 95.4817C682.381 95.2283 682.675 95.1098 682.928 95.218C715.103 108.947 713.886 151.905 687.886 165.165C687.64 165.291 687.339 165.192 687.214 164.947C687.088 164.701 687.186 164.399 687.432 164.274C712.679 151.397 713.927 109.533 682.536 96.138C682.282 96.0296 682.164 95.7357 682.272 95.4817Z" fill="#510504"/>
<path fill-rule="evenodd" clip-rule="evenodd" d="M670.167 101.096C686.631 101.096 699.986 114.343 699.986 130.692C699.986 147.04 686.632 160.288 670.167 160.288C667.969 160.288 665.826 160.049 663.763 159.601V159.606L662.772 159.477L662.785 159.373C657.896 158.138 653.491 155.702 649.903 152.402L649.813 152.333L649.819 152.324C643.992 146.923 640.346 139.231 640.346 130.692C640.347 114.343 653.702 101.096 670.167 101.096ZM663.892 158.607C665.912 159.052 668.012 159.288 670.167 159.288C673.662 159.288 677.011 158.669 680.11 157.538L669.778 140.305C668.567 140.257 667.414 139.985 666.359 139.53L663.892 158.607ZM651.174 152.199C654.5 155.093 658.502 157.238 662.915 158.373L665.412 139.056C664.448 138.506 663.59 137.795 662.872 136.958L651.174 152.199ZM675.936 138.39C674.52 139.455 672.8 140.135 670.929 140.282L681.057 157.173C687.394 154.605 692.601 149.863 695.741 143.882L675.936 138.39ZM642.515 138.771C643.979 143.71 646.749 148.094 650.43 151.529L662.24 136.14C661.417 134.944 660.859 133.552 660.647 132.049L642.515 138.771ZM678.861 134.803C678.363 135.857 677.678 136.804 676.851 137.606L696.198 142.972C697.984 139.251 698.986 135.087 698.986 130.692C698.986 129.484 698.909 128.293 698.762 127.124L678.861 134.803ZM670.167 122.069C668.259 122.069 666.496 122.69 665.068 123.741L665.556 124.141L664.922 124.914L664.285 124.392C663.573 125.058 662.974 125.845 662.52 126.718L662.51 127L662.381 126.995C661.849 128.116 661.551 129.369 661.55 130.692C661.55 130.882 661.558 131.072 661.57 131.26L661.716 131.654L661.609 131.693C661.764 133.033 662.227 134.279 662.924 135.36L663.664 135.928L663.495 136.147C665.075 138.08 667.476 139.316 670.167 139.316C674.925 139.315 678.783 135.454 678.783 130.692C678.783 125.929 674.924 122.069 670.167 122.069ZM641.69 126.264C641.464 127.707 641.346 129.186 641.346 130.692C641.346 133.147 641.658 135.53 642.245 137.804L660.557 131.016C660.554 130.908 660.55 130.8 660.55 130.692C660.551 129.368 660.817 128.105 661.3 126.957L641.69 126.264ZM679.674 129.247C679.744 129.718 679.783 130.201 679.783 130.692C679.783 131.684 679.632 132.641 679.353 133.541L698.615 126.109C697.876 121.557 696.055 117.366 693.421 113.801L679.674 129.247ZM677.22 124.155C678.23 125.246 678.99 126.571 679.41 128.04L692.707 113.099L693.08 113.432L693.28 113.61C690.68 110.152 687.31 107.297 683.423 105.295L677.22 124.155ZM648.714 111.599C645.291 115.383 642.871 120.077 641.866 125.27L661.786 125.973C662.25 125.15 662.831 124.402 663.508 123.752L648.714 111.599ZM674.106 121.914C674.949 122.294 675.728 122.79 676.421 123.385L682.504 104.892L682.831 104.999C679.994 103.62 676.895 102.69 673.628 102.302L674.106 121.914ZM659.435 104.146C655.617 105.667 652.204 107.974 649.398 110.866L664.275 123.088C665.681 121.996 667.397 121.285 669.27 121.112C669.207 120.993 669.132 120.849 669.039 120.683C668.759 120.183 668.357 119.491 667.873 118.671C666.904 117.033 665.612 114.893 664.319 112.767C663.026 110.641 661.732 108.531 660.762 106.951C660.277 106.162 659.873 105.504 659.591 105.045C659.449 104.816 659.338 104.636 659.262 104.513C659.225 104.452 659.196 104.404 659.176 104.372C659.167 104.357 659.159 104.344 659.154 104.336C659.152 104.332 659.149 104.329 659.148 104.327L659.147 104.325C659.15 104.323 659.176 104.306 659.435 104.146ZM670.167 102.096C666.611 102.096 663.206 102.736 660.062 103.904C660.077 103.928 660.094 103.956 660.114 103.988C660.19 104.11 660.301 104.291 660.442 104.521C660.725 104.98 661.13 105.638 661.615 106.428C662.585 108.008 663.88 110.12 665.174 112.247C666.467 114.374 667.761 116.518 668.733 118.162C669.219 118.984 669.626 119.684 669.912 120.195C670.054 120.449 670.169 120.662 670.25 120.822C670.29 120.9 670.324 120.973 670.35 121.034C670.355 121.047 670.36 121.06 670.365 121.074C671.316 121.093 672.233 121.248 673.096 121.525L672.625 102.2C671.814 102.133 670.995 102.096 670.167 102.096Z" fill="#510504"/>
<path d="M665.382 32.3128C665.651 32.2558 665.917 32.4279 665.974 32.6975C666.032 32.9675 665.859 33.2328 665.589 33.2903C657.477 35.0123 649.317 36.9919 640.92 38.2278L640.913 38.2288C620.401 40.9493 599.538 41.9257 579.353 46.1135L579.352 46.1126C548.02 52.7786 515.927 53.2762 484.433 55.7385H484.431C481.14 55.9826 477.84 56.5935 474.52 57.301C471.348 57.9771 468.136 58.7439 464.937 59.3508V62.1389C471.469 62.162 477.891 62.6183 484.357 62.1389C490.868 61.5238 497.441 60.5396 504.035 59.6145C510.626 58.6898 517.235 57.8245 523.787 57.4534C550.891 55.9738 578.022 55.726 605.102 54.7405L612.318 54.4524C619.544 54.1548 626.796 53.8317 634.049 53.5081C643.719 53.0766 653.391 52.6446 663.002 52.2747C663.277 52.2642 663.51 52.4794 663.521 52.7551C663.532 53.0308 663.316 53.2628 663.041 53.2737C653.434 53.6435 643.764 54.0756 634.093 54.5071C624.423 54.9386 614.751 55.3696 605.14 55.7395C578.017 56.7266 550.941 56.9712 523.842 58.4505L523.843 58.4514C517.337 58.82 510.764 59.6802 504.174 60.6048C497.591 61.5284 490.985 62.5172 484.441 63.135L484.431 63.136C477.758 63.6307 471.037 63.137 464.437 63.137C464.161 63.137 463.937 62.9131 463.937 62.637V58.9387C463.937 58.6979 464.11 58.4905 464.346 58.4466C467.665 57.8316 470.967 57.0353 474.311 56.3225C477.643 55.6124 480.995 54.9907 484.355 54.7415L487.317 54.5159C517.931 52.2362 548.876 51.5746 579.147 45.1341H579.15C599.371 40.9386 620.394 39.9416 640.781 37.2376C649.135 36.0077 657.235 34.0422 665.382 32.3128Z" fill="#510504"/>
<path d="M676.63 33.2913C744.435 41.1876 811.632 54.0017 879.857 56.7132C880.125 56.7239 880.337 56.9442 880.338 57.2122V62.1438C880.338 62.4198 880.114 62.6436 879.838 62.6438C872.989 62.6438 865.779 63.1375 858.859 62.6428C827.3 60.4221 795.548 57.4653 764.007 55.4925C747.269 54.754 730.312 55.4934 713.53 55.4934H713.519C701.933 55.2467 690.593 54.7531 679.014 54.26C678.739 54.2481 678.525 54.0152 678.537 53.7395C678.549 53.4638 678.782 53.2493 679.057 53.261C690.638 53.7542 701.966 54.246 713.539 54.4925C729.736 54.4922 746.231 53.7995 762.487 54.429L764.06 54.4934L764.069 54.4944C793.63 56.3434 823.44 59.0612 853.017 61.221L858.93 61.6458L860.222 61.7268C866.527 62.0688 872.984 61.6666 879.338 61.6458V57.6917C811.231 54.9376 744.06 42.1505 676.514 34.2844C676.24 34.2525 676.044 34.004 676.076 33.7298C676.108 33.456 676.356 33.2596 676.63 33.2913Z" fill="#510504"/>
</svg>
