<svg width="344" height="83" viewBox="0 0 344 83" fill="none" xmlns="http://www.w3.org/2000/svg">
<path d="M182.595 72.7828C182.649 72.7422 182.726 72.7532 182.767 72.8075C183.042 73.1728 183.319 73.4921 183.592 73.8424C183.859 74.1851 184.108 74.5408 184.296 74.9456L184.363 75.0883C185.729 78.0944 183.935 81.6545 180.559 82.0221L180.558 82.0223C171.092 82.991 161.554 83.5977 152.013 82.0818H152.012C150.43 81.8237 149.155 81.4847 148.181 81.0315C147.206 80.5779 146.525 80.006 146.144 79.2783C145.763 78.55 145.693 77.6831 145.905 76.6583C146.118 75.6349 146.613 74.4459 147.374 73.064C147.407 73.0046 147.482 72.9829 147.541 73.0155C147.601 73.0482 147.622 73.1228 147.59 73.1822C146.834 74.5543 146.352 75.7187 146.147 76.7079C145.942 77.6957 146.015 78.5011 146.363 79.1649C146.71 79.8295 147.341 80.3697 148.285 80.809C149.229 81.2486 150.48 81.583 152.052 81.8394C161.559 83.3499 171.07 82.7463 180.532 81.778L180.683 81.7593C183.829 81.3166 185.475 77.9053 184.075 75.0535L184.073 75.0511C183.897 74.6702 183.661 74.3304 183.398 73.9929C183.14 73.6623 182.841 73.3156 182.57 72.9547C182.529 72.9004 182.54 72.8234 182.595 72.7828Z" fill="#510504"/>
<path d="M150.37 52.9065C160.085 50.9679 169.74 51.2494 179.442 52.5908L180.381 52.7238L180.4 52.7279C180.442 52.741 180.475 52.7762 180.484 52.8204C180.908 54.8772 181.332 56.6912 181.818 58.8718C181.827 58.9121 181.815 58.9543 181.786 58.984C181.757 59.0136 181.715 59.0268 181.674 59.019C179.784 58.6539 178.524 58.3537 177.186 58.1111C177.12 58.0989 177.075 58.0351 177.087 57.9685C177.1 57.9018 177.164 57.8576 177.231 57.8697C178.518 58.1032 179.765 58.3958 181.536 58.7414C181.075 56.6741 180.667 54.9211 180.26 52.9544C170.315 51.5172 160.436 51.1612 150.501 53.1309C150.156 55.1452 149.917 56.791 149.575 58.6886C158.99 57.1451 167.927 57.5073 176.911 57.9284C176.979 57.9316 177.031 57.989 177.028 58.0567C177.025 58.1244 176.967 58.1766 176.899 58.1734C167.859 57.7497 158.893 57.3874 149.444 58.9588C149.404 58.9654 149.364 58.9525 149.336 58.924C149.307 58.8956 149.295 58.8552 149.302 58.8159C149.666 56.8177 149.908 55.1303 150.273 53.0062L150.277 52.9878C150.291 52.9466 150.326 52.9152 150.37 52.9065Z" fill="#510504"/>
<path d="M155.096 52.7265C155.162 52.7435 155.201 52.8105 155.185 52.876C154.972 53.6923 154.775 54.4936 154.578 55.2957C154.381 56.0975 154.184 56.9004 153.971 57.7184C153.954 57.784 153.887 57.8236 153.821 57.8066C153.755 57.7896 153.716 57.7226 153.733 57.657C153.945 56.8408 154.142 56.0393 154.339 55.2372C154.536 54.4353 154.733 53.6325 154.946 52.8144C154.963 52.7489 155.03 52.7095 155.096 52.7265Z" fill="#510504"/>
<path d="M175.964 52.7265C176.03 52.7096 176.097 52.7489 176.114 52.8144C176.327 53.6325 176.524 54.4353 176.721 55.2372C176.919 56.0393 177.116 56.8408 177.328 57.657C177.345 57.7226 177.305 57.7896 177.239 57.8066C177.174 57.8236 177.106 57.784 177.089 57.7184C176.877 56.9004 176.68 56.0975 176.482 55.2957C176.285 54.4935 176.088 53.6923 175.876 52.876C175.859 52.8104 175.899 52.7435 175.964 52.7265Z" fill="#510504"/>
<path d="M165.378 52.1173C165.446 52.1173 165.502 52.1723 165.502 52.24V57.3852C165.502 57.4529 165.446 57.5079 165.378 57.5079C165.311 57.5079 165.255 57.4529 165.255 57.3852V52.24C165.255 52.1723 165.311 52.1173 165.378 52.1173Z" fill="#510504"/>
<path fill-rule="evenodd" clip-rule="evenodd" d="M138.382 37.7714C142.437 37.7715 145.724 41.0514 145.724 45.0972C145.724 49.1431 142.437 52.4231 138.382 52.4232C136.51 52.4232 134.802 51.7239 133.506 50.5734L133.37 50.471L133.379 50.4586C131.94 49.1211 131.04 47.2142 131.04 45.0972C131.04 41.0514 134.327 37.7714 138.382 37.7714ZM136.827 52.0068C137.328 52.1184 137.848 52.1777 138.382 52.1777C139.234 52.1777 140.052 52.0276 140.809 51.7527L138.224 47.4538C137.927 47.4343 137.646 47.3603 137.389 47.2418L136.827 52.0068ZM133.711 50.4274C134.527 51.1392 135.506 51.6677 136.587 51.9488L137.156 47.1186C136.942 46.989 136.75 46.826 136.587 46.6375L133.711 50.4274ZM139.803 46.987C139.44 47.2594 138.995 47.4298 138.512 47.4559L141.042 51.6628C142.62 51.0255 143.917 49.8383 144.692 48.3389L139.803 46.987ZM131.569 47.0822C131.929 48.3142 132.615 49.4072 133.528 50.262L136.431 46.4361C136.228 46.1422 136.09 45.8002 136.038 45.4307L131.569 47.0822ZM140.535 46.0789C140.412 46.3485 140.239 46.5909 140.028 46.7945L144.803 48.1147C145.236 47.1993 145.478 46.1765 145.478 45.0972C145.478 44.8004 145.46 44.5079 145.424 44.2207L140.535 46.0789ZM138.382 42.9804C137.93 42.9804 137.511 43.122 137.166 43.3627L137.247 43.4287L137.169 43.5236L137.09 43.6183L136.969 43.5186C136.534 43.9062 136.26 44.4697 136.26 45.0972C136.26 45.1438 136.262 45.1902 136.265 45.236L136.302 45.3333L136.275 45.3429C136.313 45.6725 136.427 45.9789 136.599 46.2446L136.683 46.3078L136.782 46.3819L136.739 46.4371C137.125 46.9074 137.71 47.2088 138.365 47.2138L138.366 47.2133L138.367 47.2138C138.372 47.2138 138.377 47.2143 138.382 47.2143C139.268 47.2142 140.027 46.6718 140.344 45.9017L140.34 45.8905L140.35 45.8864C140.449 45.6425 140.504 45.3762 140.504 45.0972C140.504 44.9612 140.49 44.8281 140.466 44.6992L140.413 44.6532L140.447 44.6137C140.228 43.6776 139.387 42.9804 138.382 42.9804ZM131.369 44.0102C131.314 44.3646 131.286 44.7276 131.286 45.0972C131.286 45.7001 131.362 46.2856 131.504 46.8444L136.016 45.1768C136.015 45.1504 136.014 45.1238 136.014 45.0972C136.014 44.7729 136.08 44.4637 136.198 44.1824L131.369 44.0102ZM140.103 43.4761C140.347 43.7336 140.534 44.0455 140.642 44.3919L143.871 40.7187L143.963 40.7995L144.056 40.8805L140.713 44.6839C140.737 44.8181 140.75 44.9562 140.75 45.0972C140.75 45.3317 140.715 45.5582 140.651 45.772L145.388 43.9716C145.025 41.6995 143.578 39.7882 141.592 38.7814L140.103 43.4761ZM133.11 40.3579C132.259 41.2995 131.658 42.4703 131.411 43.7662L136.317 43.941C136.439 43.7243 136.595 43.5285 136.776 43.361L133.11 40.3579ZM138.382 38.0169C137.489 38.0169 136.634 38.182 135.846 38.4827L135.927 38.6155C135.997 38.73 136.097 38.8937 136.216 39.0904C136.455 39.484 136.774 40.0101 137.092 40.5399C137.411 41.0696 137.73 41.6035 137.969 42.0128C138.088 42.2173 138.189 42.3913 138.259 42.5184C138.294 42.5817 138.322 42.6345 138.342 42.674C138.352 42.6935 138.361 42.7116 138.367 42.7267C138.368 42.7293 138.369 42.7322 138.37 42.7351C138.374 42.7351 138.378 42.7349 138.382 42.7349C138.633 42.7349 138.874 42.7739 139.101 42.8459L138.926 38.0802L139.172 38.0711L139.351 42.9418C139.552 43.0318 139.738 43.1488 139.904 43.2884L141.359 38.7045L141.476 38.7416L141.575 38.7726C140.615 38.2893 139.53 38.0169 138.382 38.0169ZM135.615 38.5753C134.73 38.9497 133.936 39.4986 133.278 40.1784L136.969 43.2011C137.294 42.9601 137.682 42.8006 138.105 42.7514C138.088 42.7205 138.068 42.682 138.043 42.6371C137.974 42.5125 137.875 42.3403 137.756 42.1363C137.518 41.7284 137.199 41.1955 136.881 40.666C136.563 40.1366 136.244 39.6109 136.006 39.2175C135.886 39.0209 135.787 38.8572 135.717 38.7428C135.682 38.6856 135.655 38.6406 135.636 38.61C135.627 38.5948 135.62 38.5831 135.615 38.5753Z" fill="#510504"/>
<path fill-rule="evenodd" clip-rule="evenodd" d="M185.389 38.1562C189.257 35.1596 194.718 35.5845 197.673 38.1648L197.674 38.1658C201.11 41.2268 202.223 46.0141 199.516 50.1879C197.548 53.2555 194.319 54.5731 191.196 54.466C188.075 54.3588 185.044 52.8286 183.473 50.1838C183.29 49.8799 183.117 49.5332 182.941 49.2151C182.761 48.8911 182.571 48.5854 182.343 48.3353C182.115 48.0864 181.85 47.8949 181.521 47.7959C181.192 47.6968 180.786 47.687 180.272 47.8189C180.24 47.8273 180.207 47.8216 180.179 47.8057C183.422 51.4364 185.116 56.089 185.347 60.7386C185.644 66.7313 183.511 72.7327 179.109 76.5449L179.109 76.5451C172.691 82.095 164.871 81.4157 157.526 79.7803C152.443 78.6499 148.851 74.9688 146.906 70.3483C144.961 65.729 144.656 60.1611 146.151 55.2309C147.027 52.3435 148.59 50.0256 150.451 47.9275C149.836 47.6666 149.336 47.595 148.921 47.6487C148.503 47.7027 148.159 47.8846 147.859 48.1478C147.557 48.4125 147.301 48.7586 147.062 49.1379C146.82 49.5216 146.607 49.9178 146.374 50.3052L146.374 50.3054C144.095 54.1164 138.442 55.7663 134.081 53.6211L134.08 53.6209C130.27 51.7199 128.427 48.0976 128.856 43.8139V43.8127C129.012 42.4145 129.956 40.757 131.184 39.3642C132.412 37.9711 133.949 36.8162 135.316 36.444L135.317 36.4438C139.421 35.3598 143.656 36.7044 145.959 39.9688L146.068 40.1259L146.068 40.127C146.713 41.1077 147.262 42.1004 148.014 42.8061C148.731 43.4788 149.629 43.885 150.973 43.7223L151.104 43.7046C152.114 43.552 153.192 43.5821 154.211 43.5447C155.24 43.507 156.219 43.4012 157.074 42.9892L157.075 42.9887C160.642 41.316 164.062 40.6899 167.371 41.0407C170.68 41.3914 173.869 42.7177 176.977 44.9368C178.154 45.7758 179.204 46.7214 180.13 47.7496C180.127 47.7435 180.124 47.7373 180.123 47.7307C180.106 47.6651 180.145 47.5982 180.211 47.5813C180.759 47.4408 181.211 47.4463 181.592 47.5609C181.974 47.6757 182.274 47.8967 182.524 48.1698C182.773 48.4417 182.974 48.7677 183.156 49.0962C183.342 49.4303 183.503 49.7571 183.684 50.0582L183.684 50.0587C185.206 52.6196 188.152 54.116 191.204 54.2207C194.253 54.3253 197.394 53.0405 199.309 50.0554L199.309 50.0546C201.941 45.9967 200.869 41.3417 197.511 38.3497L197.375 38.2339C194.478 35.8343 189.252 35.4696 185.535 38.3542C185.533 38.356 185.53 38.3579 185.527 38.3595C185.167 38.5992 184.826 38.8871 184.659 39.2201C183.861 41.0245 182.723 42.2703 181.311 43.0556C179.899 43.8408 178.222 44.1608 176.357 44.1304C176.289 44.1292 176.235 44.0734 176.236 44.0057C176.237 43.938 176.293 43.884 176.361 43.8851C178.197 43.9151 179.827 43.5996 181.191 42.8413C182.552 42.0839 183.657 40.8797 184.437 39.1159L184.439 39.1103C184.636 38.7177 185.022 38.4006 185.389 38.1562ZM145.758 40.1103C143.521 36.94 139.398 35.62 135.381 36.6806L135.381 36.6809C134.079 37.0351 132.582 38.1502 131.369 39.5263C130.156 40.9022 129.249 42.5127 129.101 43.8381C128.681 48.0285 130.478 51.5491 134.19 53.4011L134.39 53.4965C138.614 55.4419 143.988 53.8166 146.163 50.1795C146.385 49.8104 146.612 49.3892 146.854 49.007C147.098 48.6203 147.369 48.2513 147.696 47.9637C148.026 47.6746 148.414 47.4667 148.889 47.4053C149.363 47.3441 149.913 47.4299 150.564 47.7084C150.584 47.7171 150.6 47.731 150.613 47.7474C151.695 46.545 152.873 45.4119 154.071 44.2819C154.12 44.2353 154.198 44.2374 154.245 44.2867C154.291 44.3358 154.289 44.4134 154.24 44.46C150.902 47.6085 147.771 50.7363 146.386 55.3019C144.908 60.1777 145.21 65.687 147.133 70.2533C149.055 74.8184 152.592 78.4314 157.579 79.5406C164.915 81.1738 172.626 81.8262 178.948 76.3596L179.149 76.1822C183.348 72.4205 185.391 66.5896 185.101 60.7506C184.807 54.8201 182.107 48.8948 176.834 45.1365C173.753 42.937 170.603 41.6301 167.345 41.2847C164.087 40.9394 160.712 41.554 157.181 43.21L157.182 43.2103C156.278 43.6457 155.255 43.752 154.221 43.7899C153.178 43.8282 152.132 43.7975 151.14 43.9474L151.14 43.9477C149.645 44.1652 148.637 43.7281 147.845 42.9849C147.065 42.2533 146.492 41.2188 145.863 40.2627L145.758 40.1103Z" fill="#510504"/>
<path fill-rule="evenodd" clip-rule="evenodd" d="M343.592 65.4354C343.635 65.4419 343.672 65.4704 343.688 65.5112C343.752 65.6701 343.799 65.8436 343.844 66.0086C343.89 66.1765 343.934 66.3361 343.991 66.4797C344.016 66.5426 343.986 66.6139 343.923 66.6391C343.319 66.8799 342.73 67.2199 342.11 67.5139C341.501 67.8027 340.874 68.0395 340.239 68.0399L340.239 68.0401C336.203 68.1007 328.705 68.1008 321.209 68.1008C314.181 68.1008 307.153 68.1008 302.979 68.1506L302.183 68.1612C301.917 68.1655 301.651 68.1703 301.385 68.1749V68.6136C301.385 70.1049 300.172 71.3139 298.676 71.3139C297.18 71.3139 295.968 70.1049 295.968 68.6136V68.2791C286.817 68.4768 277.667 68.7729 268.516 69.0691L268.515 69.0693C264.45 69.1799 260.387 69.2683 256.325 69.3886V69.841C256.325 71.3323 255.112 72.5413 253.616 72.5414C252.12 72.5414 250.908 71.3324 250.908 69.841V69.5727C250.104 69.6043 249.301 69.6379 248.497 69.6744C238.79 70.0981 229.085 70.5219 219.38 71.1876C217.168 71.3398 214.955 71.5074 212.742 71.6884V72.0504C212.742 73.5417 211.529 74.7507 210.034 74.7507C208.574 74.7507 207.384 73.5991 207.327 72.1573C202.55 72.5924 197.773 73.0824 192.995 73.6084C190.217 73.9097 187.571 74.9318 184.824 75.6629C184.758 75.6804 184.69 75.6414 184.673 75.5759C184.655 75.5104 184.695 75.4433 184.76 75.4258C187.472 74.7042 190.166 73.6684 192.968 73.3643L194.618 73.1841C202.866 72.2906 211.114 71.5102 219.363 70.9426C229.072 70.2766 238.78 69.8528 248.486 69.4291L249.738 69.3745C255.995 69.1111 262.253 68.994 268.508 68.8238L272.716 68.6879C282.537 68.3726 292.358 68.0746 302.18 67.9157L302.976 67.9052C307.152 67.8553 314.182 67.8553 321.209 67.8553C328.706 67.8553 336.202 67.8551 340.235 67.7946H340.237C340.815 67.7946 341.401 67.5782 342.004 67.2922C342.561 67.0281 343.146 66.6973 343.72 66.4564C343.677 66.3306 343.641 66.1995 343.606 66.0734C343.569 65.9349 343.532 65.8023 343.488 65.6795H185.399C185.331 65.6795 185.275 65.6245 185.275 65.5567C185.276 65.489 185.331 65.434 185.399 65.434H343.574L343.592 65.4354ZM212.496 71.709C210.855 71.8439 209.214 71.9859 207.573 72.1348C207.618 73.4515 208.702 74.5052 210.034 74.5052C211.393 74.5052 212.496 73.4061 212.496 72.0504V71.709ZM256.078 69.3958C254.437 69.445 252.795 69.4995 251.154 69.5631V69.841C251.154 71.1968 252.256 72.2959 253.616 72.2959C254.976 72.2958 256.078 71.1968 256.078 69.841V69.3958ZM301.138 68.1789C299.497 68.2071 297.855 68.239 296.214 68.2741V68.6136C296.214 69.9694 297.316 71.0684 298.676 71.0684C300.036 71.0684 301.138 69.9693 301.138 68.6136V68.1789Z" fill="#510504"/>
<path fill-rule="evenodd" clip-rule="evenodd" d="M145.055 65.434C145.123 65.434 145.178 65.489 145.178 65.5567C145.178 65.6245 145.123 65.6794 145.055 65.6795H0.308192C0.775386 66.7506 1.39277 67.2867 2.09408 67.5611C2.84189 67.8537 3.69696 67.8553 4.6124 67.8553C12.7998 67.8553 20.9931 67.7342 29.1841 67.8553H29.1848C43.9271 68.158 58.7305 68.5211 73.4734 69.0659C86.0316 69.5502 98.5302 70.0949 111.09 70.8819C119.889 71.4269 128.689 72.3352 137.486 73.3037C140.348 73.6076 143.162 74.643 145.996 75.3649C146.062 75.3818 146.101 75.4487 146.085 75.5143C146.068 75.5799 146.001 75.6195 145.935 75.6027C143.066 74.8719 140.299 73.8492 137.459 73.5478H137.458C130.788 72.8134 124.119 72.1143 117.451 71.5817C117.45 73.1242 116.242 74.3825 114.743 74.3825C113.242 74.3825 112.034 73.1228 112.034 71.5791V71.1883C111.714 71.1675 111.394 71.147 111.074 71.1272C98.6528 70.3488 86.2901 69.8074 73.8687 69.327V69.6152C73.8687 71.1589 72.6605 72.4186 71.1602 72.4186C69.6598 72.4186 68.4517 71.1589 68.4517 69.6152V69.1328C55.37 68.685 42.2512 68.3691 29.1798 68.1008C28.9741 68.0977 28.7683 68.0951 28.5625 68.0924V68.3877C28.5625 69.9314 27.3543 71.1911 25.854 71.1912C24.3536 71.1912 23.1455 69.9314 23.1455 68.3877V68.0497C16.9688 68.0317 10.7923 68.1008 4.6124 68.1008C3.70787 68.1008 2.80331 68.1023 2.00414 67.7896C1.19435 67.4727 0.504753 66.8393 0.00882149 65.6023C-0.00631736 65.5645 -0.00180617 65.5216 0.0210849 65.4879C0.0439952 65.4543 0.082225 65.434 0.123039 65.434H145.055ZM112.28 71.5791C112.281 72.9964 113.387 74.137 114.743 74.137C116.098 74.137 117.205 72.9963 117.205 71.5791H117.416C115.704 71.4425 113.992 71.3167 112.28 71.2044V71.5791ZM68.6979 69.6152C68.6979 71.0325 69.8048 72.1731 71.1602 72.1731C72.5155 72.1731 73.6225 71.0324 73.6225 69.6152V69.3172C73.5697 69.3151 73.5169 69.3132 73.464 69.3112C71.876 69.2525 70.2872 69.1961 68.6979 69.1415V69.6152ZM23.3917 68.3877C23.3917 69.805 24.4986 70.9457 25.854 70.9457C27.2093 70.9456 28.3163 69.805 28.3163 68.3877V68.0893C26.6747 68.0683 25.0332 68.0561 23.3917 68.0507V68.3877Z" fill="#510504"/>
<path fill-rule="evenodd" clip-rule="evenodd" d="M191.647 37.7714C195.702 37.7715 198.989 41.0514 198.99 45.0972C198.99 49.1431 195.702 52.4232 191.647 52.4232C187.592 52.4232 184.305 49.1431 184.305 45.0972C184.305 41.0514 187.592 37.7715 191.647 37.7714ZM190.095 52.0073C190.595 52.1185 191.114 52.1777 191.647 52.1777C192.518 52.1777 193.353 52.0207 194.124 51.7342L191.552 47.4571C191.254 47.4453 190.97 47.3787 190.71 47.2668L190.095 52.0073ZM187.012 50.4581C187.821 51.1549 188.789 51.6724 189.854 51.9492L190.476 47.1503C190.241 47.0162 190.031 46.8432 189.855 46.6396L187.012 50.4581ZM193.068 46.9868C192.719 47.2483 192.296 47.4155 191.835 47.4516L194.356 51.6431C195.917 50.9991 197.198 49.8155 197.965 48.3247L193.068 46.9868ZM184.834 47.0822C185.198 48.3295 185.897 49.4343 186.828 50.2936L189.698 46.4383C189.494 46.1438 189.356 45.801 189.303 45.4304L184.834 47.0822ZM193.788 46.1067C193.665 46.3651 193.497 46.5975 193.294 46.794L198.075 48.1001C198.503 47.1884 198.743 46.1708 198.743 45.0972C198.743 44.808 198.725 44.5229 198.692 44.2428L193.788 46.1067ZM191.647 42.9804C191.195 42.9804 190.776 43.122 190.431 43.3627L190.512 43.4287L190.434 43.5236L190.356 43.6183L190.234 43.5186C190.043 43.6886 189.884 43.8928 189.765 44.1212L189.762 44.191L189.73 44.1898C189.599 44.4648 189.526 44.7725 189.526 45.0972C189.526 45.144 189.528 45.1906 189.531 45.2367L189.567 45.3333L189.54 45.3429C189.579 45.6735 189.693 45.9806 189.866 46.2467L190.047 46.381L190.005 46.4375C190.394 46.9116 190.985 47.2143 191.647 47.2143C192.819 47.2142 193.769 46.2664 193.769 45.0972C193.769 43.9281 192.819 42.9804 191.647 42.9804ZM184.634 44.0102C184.579 44.3646 184.551 44.7276 184.551 45.0972C184.551 45.7001 184.627 46.2856 184.769 46.8444L189.281 45.1768C189.28 45.1504 189.279 45.1238 189.279 45.0972C189.279 44.7721 189.345 44.4623 189.464 44.1805L184.634 44.0102ZM193.988 44.7414C194.006 44.8574 194.015 44.9763 194.015 45.0972C194.015 45.3412 193.977 45.5765 193.909 45.7979L198.657 43.9935C198.478 42.8487 198.023 41.7949 197.363 40.9014L193.988 44.7414ZM193.414 43.5248C193.647 43.7857 193.823 44.0986 193.922 44.4439L197.197 40.7187L197.28 40.7918C196.648 39.9693 195.839 39.2892 194.91 38.8083L193.414 43.5248ZM186.375 40.3582C185.524 41.2997 184.924 42.4704 184.677 43.7662L189.584 43.9388C189.706 43.723 189.86 43.5279 190.042 43.361L186.375 40.3582ZM191.647 38.0169C190.772 38.0169 189.935 38.1752 189.161 38.464C189.164 38.4695 189.168 38.4757 189.172 38.4827C189.191 38.5134 189.219 38.5583 189.253 38.6155C189.323 38.73 189.423 38.8938 189.542 39.0904C189.781 39.484 190.1 40.0101 190.418 40.5399C190.737 41.0696 191.056 41.6036 191.295 42.0128C191.414 42.2172 191.514 42.3913 191.585 42.5184C191.62 42.5817 191.648 42.6345 191.668 42.674C191.678 42.6935 191.686 42.7116 191.693 42.7267C191.694 42.7296 191.695 42.7329 191.696 42.7361C191.93 42.7408 192.156 42.779 192.369 42.8468L192.252 38.0788L192.375 38.0757L192.498 38.0728L192.617 42.9425C192.837 43.0412 193.039 43.172 193.217 43.3296L194.684 38.7045L194.734 38.7201C193.8 38.2696 192.753 38.0169 191.647 38.0169ZM188.982 38.5333C188.056 38.9081 187.227 39.4724 186.544 40.1781L190.234 43.2011C190.574 42.9493 190.983 42.7861 191.427 42.7452C191.411 42.7154 191.392 42.679 191.369 42.6371C191.3 42.5125 191.201 42.3403 191.082 42.1363C190.844 41.7284 190.525 41.1955 190.207 40.666C189.889 40.1365 189.57 39.6109 189.331 39.2175C189.212 39.0208 189.112 38.8572 189.043 38.7428C189.008 38.6856 188.981 38.6406 188.962 38.61C188.953 38.5948 188.945 38.5831 188.941 38.5753C188.938 38.5713 188.936 38.5681 188.935 38.5661C188.935 38.5652 188.934 38.5645 188.934 38.564L188.934 38.5635L188.933 38.5633C188.934 38.5629 188.939 38.5596 188.982 38.5333Z" fill="#510504"/>
<path d="M164.974 0.0535255C165.002 0.0118221 165.054 -0.00894826 165.105 0.00366105C165.274 0.0458591 165.445 0.0567167 165.623 0.0595188L165.803 0.0604778L165.827 0.0628751C165.881 0.0733496 165.922 0.118749 165.926 0.17507C166.017 1.53775 166.093 2.9005 166.169 4.26228C166.245 5.62431 166.321 6.98572 166.412 8.34685C166.416 8.41445 166.365 8.47294 166.297 8.4775C166.229 8.48201 166.17 8.43079 166.166 8.36315C166.075 7.00044 165.999 5.63775 165.923 4.27594C165.849 2.95194 165.775 1.62862 165.688 0.305485C165.513 0.304441 165.332 0.298578 165.148 0.264011C164.439 1.90499 164.38 3.63555 164.432 5.4082C164.485 7.2059 164.653 9.05604 164.347 10.8573L164.347 10.8583C163.687 14.5707 163.503 18.3925 163.027 22.7102C163.745 22.769 164.463 22.8402 165.193 22.9116C165.921 22.9827 166.661 23.0533 167.426 23.1118C166.946 18.0822 166.526 13.4049 166.105 8.66857C166.099 8.6011 166.149 8.54154 166.217 8.53552C166.285 8.52958 166.345 8.57933 166.351 8.64675C166.775 13.4286 167.2 18.1499 167.685 23.234C167.689 23.27 167.676 23.3058 167.651 23.3316C167.625 23.3574 167.59 23.3707 167.553 23.368C166.733 23.3074 165.943 23.2315 165.169 23.1559C164.547 23.095 163.936 23.0345 163.326 22.9816C163.316 22.9888 163.305 22.9953 163.293 22.9993C160.1 24.0211 157.591 25.8164 156.455 28.9768L156.455 28.9778C155.674 31.1057 155.586 33.0603 156.138 34.8465C156.69 36.6329 157.886 38.2628 159.691 39.7341C159.971 39.952 160.235 40.215 160.486 40.4809C160.74 40.7496 160.978 41.017 161.219 41.2576C161.267 41.3055 161.267 41.3833 161.219 41.4312C161.171 41.4791 161.093 41.4791 161.045 41.4312C160.801 41.1876 160.553 40.9101 160.307 40.6492C160.058 40.3855 159.805 40.1339 159.54 39.9281L159.537 39.9262C157.704 38.432 156.473 36.7634 155.903 34.9188C155.333 33.0733 155.427 31.0631 156.224 28.8934C157.343 25.779 159.759 23.9638 162.801 22.9051C162.8 22.9034 162.798 22.9019 162.796 22.9001C162.775 22.8745 162.765 22.8412 162.769 22.8083C163.253 18.461 163.437 14.5729 164.105 10.8154C164.405 9.04576 164.24 7.23398 164.186 5.41539C164.133 3.6042 164.192 1.79441 164.963 0.0727042L164.974 0.0535255Z" fill="#510504"/>
<path d="M167.995 23.4395C168.022 23.3773 168.095 23.3482 168.157 23.3748C176.079 26.745 175.78 37.2906 169.378 40.5459C169.317 40.5766 169.243 40.5525 169.212 40.4922C169.181 40.4318 169.205 40.3578 169.266 40.327C175.482 37.1659 175.79 26.8888 168.06 23.6006C167.998 23.574 167.969 23.5018 167.995 23.4395Z" fill="#510504"/>
<path fill-rule="evenodd" clip-rule="evenodd" d="M165.015 24.8177C169.069 24.8178 172.357 28.0697 172.357 32.083C172.357 36.0964 169.069 39.3485 165.015 39.3486C164.473 39.3486 163.946 39.2898 163.438 39.1799V39.1811L163.194 39.1494L163.197 39.124C161.993 38.8206 160.909 38.2227 160.025 37.4126L160.003 37.3958L160.005 37.3936C158.57 36.0677 157.672 34.1794 157.672 32.083C157.672 28.0697 160.961 24.8177 165.015 24.8177ZM163.47 38.9358C163.967 39.045 164.484 39.1031 165.015 39.1031C165.875 39.1031 166.7 38.9511 167.463 38.6735L164.919 34.443C164.621 34.4312 164.337 34.3646 164.077 34.2526L163.47 38.9358ZM160.338 37.3629C161.157 38.0732 162.142 38.5999 163.229 38.8785L163.844 34.1364C163.607 34.0014 163.395 33.8268 163.218 33.6214L160.338 37.3629ZM166.435 33.9729C166.087 34.2343 165.663 34.4014 165.202 34.4375L167.696 38.5839C169.257 37.9534 170.539 36.7894 171.312 35.3211L166.435 33.9729ZM158.206 34.0664C158.566 35.2789 159.249 36.3551 160.155 37.1982L163.063 33.4205C162.86 33.1269 162.723 32.7853 162.671 32.4163L158.206 34.0664ZM167.155 33.0923C167.033 33.351 166.864 33.5836 166.661 33.7804L171.424 35.0977C171.864 34.1842 172.111 33.162 172.111 32.083C172.111 31.7865 172.092 31.4942 172.056 31.2073L167.155 33.0923ZM165.015 29.9662C164.545 29.9662 164.111 30.1188 163.759 30.3766L163.879 30.4749L163.723 30.6648L163.566 30.5365C163.391 30.7001 163.244 30.8932 163.132 31.1076L163.13 31.1769L163.098 31.1757C162.967 31.4507 162.893 31.7583 162.893 32.083C162.893 32.1299 162.895 32.1765 162.898 32.2226L162.934 32.3192L162.908 32.3288C162.946 32.6579 163.06 32.9636 163.231 33.229L163.413 33.3685L163.372 33.4222C163.761 33.8968 164.352 34.2001 165.015 34.2001C166.186 34.2 167.136 33.2522 167.136 32.083C167.136 30.914 166.186 29.9663 165.015 29.9662ZM158.003 30.9961C157.947 31.3503 157.918 31.7134 157.918 32.083C157.918 32.6857 157.995 33.2708 158.14 33.829L162.649 32.1626C162.648 32.1363 162.647 32.1096 162.647 32.083C162.647 31.758 162.713 31.4482 162.832 31.1663L158.003 30.9961ZM167.356 31.7285C167.373 31.8441 167.382 31.9626 167.382 32.083C167.382 32.3265 167.345 32.5616 167.277 32.7826L172.019 30.958C171.837 29.8407 171.389 28.8117 170.74 27.9366L167.356 31.7285ZM166.752 30.4783C167 30.7461 167.187 31.0715 167.291 31.4322L170.565 27.7643L170.657 27.846L170.706 27.8896C170.066 27.0408 169.236 26.34 168.279 25.8486L166.752 30.4783ZM159.732 27.396C158.89 28.3249 158.294 29.4772 158.046 30.7521L162.951 30.9247C163.065 30.7226 163.208 30.5391 163.375 30.3795L159.732 27.396ZM165.985 29.9283C166.192 30.0215 166.384 30.1434 166.555 30.2894L168.052 25.7495L168.133 25.7759C167.434 25.4373 166.671 25.209 165.867 25.1138L165.985 29.9283ZM162.372 25.5664C161.432 25.9397 160.592 26.5061 159.901 27.2162L163.564 30.2165C163.91 29.9483 164.333 29.7738 164.794 29.7313C164.778 29.7022 164.76 29.6667 164.737 29.626C164.668 29.5032 164.569 29.3334 164.45 29.1322C164.211 28.73 163.893 28.2047 163.575 27.6828C163.256 27.1609 162.938 26.6428 162.699 26.2551C162.58 26.0613 162.48 25.8999 162.411 25.7872C162.376 25.7309 162.348 25.6867 162.33 25.6565C162.32 25.6415 162.313 25.6298 162.309 25.622C162.306 25.6181 162.304 25.6151 162.303 25.6131C162.302 25.6122 162.302 25.6115 162.302 25.611L162.301 25.6105C162.302 25.61 162.309 25.6056 162.372 25.5664ZM165.015 25.0632C164.139 25.0632 163.301 25.2202 162.527 25.5069C162.53 25.5128 162.535 25.5197 162.539 25.5276C162.558 25.5577 162.585 25.6021 162.62 25.6584C162.69 25.7713 162.79 25.9327 162.909 26.1266C163.148 26.5145 163.467 27.033 163.785 27.5552C164.104 28.0773 164.422 28.6037 164.662 29.0073C164.781 29.2089 164.882 29.3807 164.952 29.5062C164.987 29.5687 165.015 29.621 165.035 29.6601C165.045 29.6794 165.053 29.6973 165.06 29.7123C165.061 29.7153 165.062 29.7186 165.064 29.7219C165.298 29.7267 165.523 29.7649 165.736 29.8327L165.62 25.0888C165.42 25.0722 165.219 25.0632 165.015 25.0632Z" fill="#510504"/>
<path d="M163.836 7.93235C163.903 7.91838 163.968 7.96061 163.982 8.0268C163.997 8.09309 163.954 8.15821 163.887 8.17232C161.89 8.59506 159.881 9.08101 157.813 9.38441L157.812 9.38465C152.761 10.0525 147.624 10.2922 142.654 11.3203L142.654 11.32C134.939 12.9564 127.036 13.0786 119.282 13.6831H119.281C118.471 13.743 117.658 13.893 116.841 14.0666C116.06 14.2326 115.269 14.4208 114.481 14.5698V15.2543C116.09 15.2599 117.671 15.3719 119.263 15.2543C120.866 15.1033 122.485 14.8617 124.108 14.6346C125.731 14.4076 127.358 14.1951 128.972 14.104C135.646 13.7408 142.326 13.68 148.994 13.4381L150.771 13.3673C152.55 13.2943 154.335 13.215 156.121 13.1355C158.502 13.0296 160.884 12.9235 163.25 12.8327C163.318 12.8302 163.376 12.883 163.378 12.9507C163.381 13.0184 163.328 13.0753 163.26 13.078C160.895 13.1688 158.514 13.2748 156.132 13.3808C153.751 13.4867 151.37 13.5925 149.003 13.6833C142.325 13.9256 135.658 13.9857 128.985 14.3488L128.986 14.349C127.384 14.4395 125.765 14.6507 124.143 14.8777C122.521 15.1044 120.895 15.3471 119.284 15.4988L119.281 15.499C117.638 15.6205 115.983 15.4993 114.358 15.4993C114.29 15.4993 114.235 15.4443 114.235 15.3765V14.4687C114.235 14.4095 114.277 14.3586 114.336 14.3478C115.153 14.1969 115.966 14.0014 116.789 13.8264C117.61 13.6521 118.435 13.4995 119.262 13.4383L119.992 13.3829C127.53 12.8233 135.149 12.6609 142.603 11.0798H142.604C147.583 10.0499 152.759 9.80513 157.779 9.14132C159.836 8.8394 161.83 8.35691 163.836 7.93235Z" fill="#510504"/>
<path d="M166.606 8.17256C183.302 10.111 199.848 13.2567 216.647 13.9223C216.713 13.925 216.765 13.979 216.765 14.0448V15.2555C216.765 15.3232 216.71 15.3782 216.642 15.3782C214.956 15.3782 213.18 15.4994 211.476 15.378C203.705 14.8328 195.887 14.107 188.121 13.6227C183.999 13.4414 179.824 13.6229 175.692 13.6229H175.689C172.836 13.5623 170.044 13.4412 167.193 13.3201C167.125 13.3172 167.073 13.26 167.076 13.1923C167.079 13.1246 167.136 13.072 167.204 13.0749C170.055 13.1959 172.845 13.3167 175.694 13.3772C179.682 13.3771 183.744 13.207 187.747 13.3616L188.134 13.3774L188.136 13.3776C195.415 13.8316 202.755 14.4987 210.038 15.0289L211.494 15.1332L211.812 15.1531C213.364 15.2371 214.954 15.1383 216.519 15.1332V14.1625C199.749 13.4864 183.209 10.3474 166.578 8.41637C166.51 8.40852 166.462 8.34753 166.47 8.2802C166.478 8.213 166.539 8.16479 166.606 8.17256Z" fill="#510504"/>
</svg>
