<svg width="207" height="41" viewBox="0 0 207 41" fill="none" xmlns="http://www.w3.org/2000/svg">
<path d="M188.822 40.8961C188.137 39.2518 187.483 37.7032 186.859 36.2501C186.234 34.7779 185.62 33.3344 185.016 31.9196L182.056 24.9506H179.459V14.11H181.815L184.714 8.60366C185.419 7.28443 186.114 5.96521 186.798 4.64598C187.503 3.32675 188.319 1.77809 189.245 0H205.918C204.448 2.14136 202.998 4.26359 201.568 6.36671C200.138 8.46983 198.689 10.6016 197.219 12.7621L191.661 20.9356L191.359 14.7409L197.521 25.4668C198.467 27.092 199.484 28.8509 200.571 30.7437C201.659 32.6366 202.716 34.4816 203.743 36.2788C204.77 38.0569 205.656 39.596 206.401 40.8961H188.822ZM165.625 40.8961C165.625 38.7738 165.625 36.709 165.625 34.7014C165.625 32.6748 165.625 30.3614 165.625 27.7611V13.7085C165.625 10.9744 165.625 8.55586 165.625 6.45275C165.625 4.34963 165.625 2.19871 165.625 0H180.425C180.425 2.19871 180.425 4.34963 180.425 6.45275C180.425 8.55586 180.425 10.9744 180.425 13.7085V27.7611C180.425 30.3614 180.425 32.6748 180.425 34.7014C180.425 36.709 180.425 38.7738 180.425 40.8961H165.625Z" fill="#F33607"/>
<path d="M114.398 40.8961C114.982 39.8445 115.667 38.6209 116.452 37.2252C117.238 35.8295 118.043 34.3955 118.869 32.9233C119.694 31.432 120.47 30.0459 121.194 28.7649L125.876 20.4194L131.766 25.008C129.269 25.008 127.104 24.7307 125.272 24.1763C123.44 23.6027 121.919 22.7901 120.711 21.7386C119.523 20.6679 118.627 19.3774 118.023 17.8669C117.439 16.3565 117.147 14.6549 117.147 12.7621C117.147 9.41623 117.862 6.82557 119.292 4.99012C120.721 3.13556 122.775 1.84501 125.453 1.11848C128.151 0.372825 131.383 0 135.149 0C137.283 0 139.528 0 141.884 0C144.26 0 146.516 0 148.65 0C150.785 0 152.577 0 154.027 0C154.027 2.19871 154.027 4.34963 154.027 6.45275C154.027 8.55586 154.027 10.9744 154.027 13.7085V27.7611C154.027 30.3614 154.027 32.6748 154.027 34.7014C154.027 36.709 154.027 38.7738 154.027 40.8961H139.468C139.468 38.7738 139.468 36.709 139.468 34.7014C139.468 32.6748 139.468 30.3614 139.468 27.7611V16.0028C139.468 13.2688 139.468 10.8502 139.468 8.74706C139.468 6.64394 139.468 4.49302 139.468 2.29431L147.14 10.5538H135.572C135.068 10.5538 134.625 10.6399 134.243 10.8119C133.86 10.9649 133.528 11.2039 133.246 11.5289C132.984 11.8539 132.783 12.2459 132.642 12.7047C132.501 13.1636 132.43 13.6894 132.43 14.2821C132.43 15.8499 132.773 16.8727 133.457 17.3507C134.162 17.8287 134.968 18.0677 135.874 18.0677H142.186V26.4993H132.038L140.495 21.3371L134.726 32.8086C134.082 34.0896 133.427 35.3897 132.763 36.7089C132.098 38.0282 131.393 39.4239 130.648 40.8961H114.398Z" fill="#F33607"/>
<path d="M63.4121 40.8961C64.0766 38.7165 64.7814 36.4126 65.5264 33.9845C66.2715 31.5372 66.9762 29.2333 67.6407 27.0729L71.9297 13.0202C72.715 10.4582 73.4198 8.16392 74.044 6.13728C74.6683 4.11064 75.2925 2.06488 75.9167 0H94.8246C95.4891 2.1796 96.1335 4.28271 96.7577 6.30935C97.3819 8.33599 98.0666 10.5729 98.8116 13.0202L103.101 27.0729C103.805 29.3289 104.52 31.6519 105.245 34.0418C105.97 36.4317 106.665 38.7165 107.329 40.8961H92.0458C91.623 38.965 91.19 36.9862 90.747 34.9595C90.3242 32.9138 89.9114 30.9923 89.5087 29.1951L85.7029 11.6436H84.7364L80.8702 28.9657C80.4474 30.8585 80.0044 32.8469 79.5412 34.9309C79.0781 37.0149 78.6351 39.0033 78.2122 40.8961H63.4121ZM76.4 34.2426L78.0914 23.9182H94.5226L95.912 34.2426H76.4Z" fill="#F33607"/>
<path d="M0 40.8961C0.281907 38.8503 0.553746 36.7663 0.815517 34.6441C1.09742 32.5218 1.39947 30.2275 1.72165 27.7611L3.56411 13.8232C3.88629 11.376 4.18833 9.03384 4.47024 6.79689C4.77229 4.54082 5.07433 2.27519 5.37637 0H20.3577C21.0021 1.72073 21.6062 3.33631 22.17 4.84673C22.7338 6.33803 23.2976 7.81977 23.8614 9.29196L27.1839 18.125H28.09L31.1105 9.32063C31.634 7.82933 32.1374 6.36671 32.6207 4.93277C33.1241 3.49882 33.6879 1.85457 34.3121 0H49.0518C49.374 2.25607 49.6861 4.50258 49.9882 6.73953C50.3104 8.97649 50.6426 11.3568 50.9849 13.8806L52.918 27.7898C53.2603 30.2944 53.5724 32.5888 53.8543 34.6728C54.1564 36.7376 54.4484 38.8121 54.7303 40.8961H40.655C40.3933 38.8503 40.1416 36.9193 39.8999 35.1029C39.6583 33.2675 39.4267 31.5372 39.2052 29.9121L38.2991 23.0005H37.3326L35.4599 30.3996C34.9968 32.2542 34.5336 34.0609 34.0705 35.8199C33.6275 37.5789 33.2046 39.2709 32.8019 40.8961H23.0761C22.6935 39.7871 22.3009 38.6496 21.8981 37.4833C21.4954 36.317 21.0927 35.1412 20.69 33.9558C20.2872 32.7513 19.8745 31.5563 19.4516 30.3709L16.9144 23.0005H15.9479L15.072 29.826C14.8706 31.4703 14.6491 33.2197 14.4075 35.0743C14.1658 36.9288 13.9141 38.8694 13.6524 40.8961H0Z" fill="#F33607"/>
</svg>
