<svg width="425" height="69" viewBox="0 0 425 69" fill="none" xmlns="http://www.w3.org/2000/svg">
<path d="M105.613 30.9784H99.4083V18.1297H92.3981V30.9784H86.1934V13.7328H105.613V30.9784ZM108.57 13.7328H120.393C123.128 13.7328 125.669 13.8305 126.914 16.3465C127.183 16.9083 127.525 17.7877 127.525 19.2289C127.525 20.0594 127.427 22.3556 125.327 23.7479C123.666 24.8716 121.271 24.896 119.391 24.896H114.725V30.9784H108.57V13.7328ZM114.725 17.6412V21.0121H118.756C119.464 21.0121 119.806 21.0121 120.148 20.9144C120.905 20.719 121.345 20.1327 121.345 19.3266C121.345 18.8869 121.199 18.5938 121.125 18.4473C120.71 17.7144 119.953 17.6412 119.22 17.6412H114.725ZM151.098 22.2823C151.098 23.8212 150.78 27.2898 147.287 29.6593C145.04 31.1738 142.573 31.5646 139.519 31.5646C135.855 31.5646 133.656 30.7341 132.239 29.928C128.576 27.8028 128.16 24.2365 128.16 22.6243C128.16 18.2762 130.408 16.029 131.898 15.0274C133.364 14.0259 135.684 13.0977 139.544 13.0977C145.65 13.0977 148.117 15.003 149.534 17.0549C150.096 17.8854 151.098 19.6686 151.098 22.2823ZM144.746 22.3312C144.746 20.4503 143.867 16.9327 139.69 16.9327C136.124 16.9327 134.512 19.5465 134.512 22.3556C134.512 24.6761 135.733 27.754 139.714 27.754C144.038 27.754 144.746 24.2365 144.746 22.3312ZM178.358 30.9784H172.276V19.9373L168.196 30.9784H163.433L159.378 19.9862V30.9784H153.321V13.7328H161.504L165.851 24.9937L170.199 13.7328H178.358V30.9784ZM181.325 13.7328H187.53V19.8884H190.095C192.635 19.8884 192.684 17.8366 193.295 16.2C193.515 15.6137 193.93 14.5145 194.687 13.7328H201.478C199.964 15.3205 199.475 16.9816 199.279 17.69C198.937 18.9602 198.205 20.9877 196.592 21.5251C199.084 22.1113 199.719 24.6029 200.061 26.1906C200.281 27.241 200.672 29.2685 202.211 30.9784H195.42C194.638 30.2455 194.272 29.1463 194.125 28.2425C193.808 26.2883 193.466 23.7968 190.754 23.7968H187.53V30.9784H181.325V13.7328ZM224.624 30.9784H217.907L216.979 28.1692H210.383L209.455 30.9784H202.664L210.115 13.7328H217.149L224.624 30.9784ZM215.684 24.3586L213.656 18.5205L211.678 24.3586H215.684ZM226.053 13.7328H244.739V18.1297H232.257V20.0106H238.828C243.519 20.0106 246.108 21.1586 246.108 25.4334C246.108 29.7081 243.201 30.9784 239.341 30.9784H226.053V13.7328ZM232.257 23.9189V27.07H237.583C239.243 27.07 239.879 26.7036 239.903 25.4334C239.903 24.4074 239.268 23.9189 237.607 23.9189H232.257ZM266.966 30.9784H248.548V13.7328H266.746V17.5923H254.728V20.4258H265.842V24.3098H254.728V27.07H266.966V30.9784ZM290.123 30.9784H283.918V18.1297H277.568V19.2533C277.568 27.9983 276.175 30.9784 269.043 30.9784H267.918V26.5815H268.701C271.094 26.5815 271.705 25.8487 271.705 18.0564V13.7328H290.123V30.9784ZM293.061 13.7328H299.265V19.522H305.836C310.526 19.522 313.115 20.9144 313.115 25.1891C313.115 29.4639 310.208 30.9784 306.349 30.9784H293.061V13.7328ZM299.265 23.4304V27.07H304.59C305.86 27.07 306.91 26.5326 306.91 25.0914C306.91 24.0411 306.154 23.4304 304.615 23.4304H299.265ZM336.422 18.4473L330.706 19.4488C329.802 17.6412 328.19 16.9327 326.382 16.9327C325.747 16.9327 323.793 17.006 322.377 18.4961C321.424 19.4976 321.033 20.9632 321.033 22.3312C321.033 24.1632 321.692 25.2624 322.157 25.8487C323.524 27.6074 325.332 27.6563 326.114 27.6563C328.654 27.6563 330.364 26.2883 330.852 24.7739L336.74 25.3845C336.544 26.0196 336.08 27.4364 334.785 28.7555C332.562 31.0028 328.971 31.5646 325.967 31.5646C322.718 31.5646 320.862 30.9539 319.567 30.3433C317.857 29.5372 314.56 27.412 314.56 22.3556C314.56 20.548 315.122 13 326.162 13C330.852 13 333.515 14.2213 334.956 15.8091C335.909 16.8351 336.276 17.9831 336.422 18.4473ZM338.265 13.7328H352.946C355.487 13.7328 358.222 14.3924 358.222 17.7633C358.222 19.6442 357.319 21.0121 354.925 21.6472C355.999 21.8182 356.977 21.9891 357.832 22.722C358.858 23.5769 359.102 24.6273 359.102 25.8975C359.102 26.4105 359.078 27.7051 358.1 28.902C356.513 30.8073 353.728 30.9784 351.529 30.9784H338.265V13.7328ZM344.495 20.3037H350.601C351.554 20.3037 352.311 19.9617 352.311 18.9358C352.311 18.0075 351.676 17.6167 350.723 17.6167H344.495V20.3037ZM344.445 24.0411V27.0456H350.967C352.165 27.0456 352.971 26.6548 352.971 25.4578C352.971 24.0655 351.823 24.0411 351.407 24.0411H344.445ZM380.976 13.7328V30.9784H374.771V25.2624H371.449C367.687 25.2624 368.787 29.3173 367.028 30.9784H360.433C363.218 29.586 362.607 25.2624 365.342 24.0166C363.34 23.3815 362.191 21.4762 362.191 19.6686C362.191 15.2961 365.294 13.7328 369.812 13.7328H380.976ZM374.771 21.3541V17.6412H371.351C369.153 17.6412 368.396 18.1786 368.396 19.5465C368.396 20.4503 368.909 21.3541 371.303 21.3541H374.771ZM389.053 18.9114L383.484 18.1053C384.241 15.0518 387.075 13.1466 392.741 13.1466C397.285 13.1466 401.755 14.0748 401.755 18.1053C401.755 19.1312 401.413 21.1342 398.799 21.696C401.046 22.1846 402.244 23.4304 402.244 25.5555C402.244 30.2944 397.7 31.589 392.717 31.589C385.266 31.589 383.288 28.7311 383.117 26.0929L389.053 25.6532C389.2 26.8013 390.201 27.6807 392.717 27.6807C395.6 27.6807 396.039 26.6792 396.039 25.7021C396.039 24.6761 395.428 24.0411 393.963 24.0411H389.908V20.1327H393.841C395.086 20.1327 395.55 19.7175 395.55 18.7892C395.55 17.69 395.013 17.0549 392.399 17.0549C390.128 17.0549 389.542 17.8854 389.053 18.9114ZM404.676 13.7328H410.881V19.522H417.451C422.141 19.522 424.731 20.9144 424.731 25.1891C424.731 29.4639 421.824 30.9784 417.965 30.9784H404.676V13.7328ZM410.881 23.4304V27.07H416.206C417.476 27.07 418.526 26.5326 418.526 25.0914C418.526 24.0411 417.769 23.4304 416.23 23.4304H410.881Z" fill="#B42F2D"/>
<path d="M86 45.1324H87.6026V49.689H91.5465C93.8878 49.689 94.4373 48.4791 94.8773 47.1436C95.0817 46.5308 95.2548 45.8237 95.6473 45.1324H97.3443C96.8099 45.9023 96.5586 46.7822 96.3073 47.5207C95.9304 48.6519 95.506 49.7989 94.076 50.2389C96.0873 50.616 96.4798 52.2815 96.8417 53.8055C97.0299 54.5911 97.2499 55.3767 97.8155 56.2252H96.1186C95.4586 55.3139 95.3648 54.1669 95.0191 53.1613C94.626 51.9986 93.966 50.9617 91.7509 50.9617H87.6026V56.2252H86V45.1324ZM111.365 56.2252H109.542L108.191 53.4913H101.372L100.02 56.2252H98.2453L103.996 45.1324H105.677L111.365 56.2252ZM107.515 52.2186L104.797 46.7194L102.032 52.2186H107.515ZM112.622 45.1324H123.541V46.4836H114.224V49.689H119.441C122.442 49.689 124.61 50.176 124.61 53.0042C124.61 55.5653 122.835 56.2252 120.698 56.2252H112.622V45.1324ZM114.224 51.0088V54.874H120.745C122.238 54.874 122.96 54.1512 122.96 53.0042C122.96 51.2131 121.483 51.0088 120.038 51.0088H114.224ZM137.269 56.2252H126.632V45.1324H136.861V46.4994H128.204V49.7989H136.641V51.1187H128.204V54.8583H137.269V56.2252ZM149.823 56.2252H148.221V46.4836H141.841V47.882C141.841 54.2455 141.417 56.2252 138.322 56.2252H137.929V54.874H138.322C139.987 54.874 140.333 53.5384 140.333 47.6935V45.1324H149.823V56.2252ZM152.363 45.1324H153.965V49.5947H159.857C162.686 49.5947 164.037 50.7102 164.037 52.9099C164.037 55.4867 162.387 56.2252 159.323 56.2252H152.363V45.1324ZM153.965 50.9459V54.874H160.172C161.664 54.874 162.387 54.1041 162.387 52.9099C162.387 51.3702 161.523 50.9459 159.464 50.9459H153.965ZM177.48 56.2252H175.893V50.9774H167.392V56.2252H165.79V45.1324H167.377V49.6575H175.877V45.1324H177.48V56.2252ZM191.982 56.2252H190.159L188.808 53.4913H181.989L180.637 56.2252H178.862L184.612 45.1324H186.294L191.982 56.2252ZM188.132 52.2186L185.414 46.7194L182.649 52.2186H188.132ZM204.708 45.1324V56.2252H203.106V51.543H198.785C196.774 51.543 196.004 52.4229 195.611 53.4756C195.281 54.3554 195.093 55.4082 194.292 56.2252H192.406C193.317 55.4867 193.6 54.3554 193.946 53.397C194.292 52.3914 194.747 51.3702 195.989 51.1659C193.962 51.0716 193.05 50.0032 193.05 48.4163C193.05 46.2323 194.433 45.1324 196.538 45.1324H204.708ZM203.106 50.2232V46.4523H197.01C195.721 46.4523 194.7 46.9079 194.7 48.3691C194.7 49.9875 196.224 50.2232 197.559 50.2232H203.106ZM212.48 45.1324H214.083V49.689H218.026C220.367 49.689 220.917 48.4791 221.357 47.1436C221.562 46.5308 221.734 45.8237 222.127 45.1324H223.824C223.29 45.9023 223.039 46.7822 222.787 47.5207C222.41 48.6519 221.986 49.7989 220.556 50.2389C222.567 50.616 222.96 52.2815 223.321 53.8055C223.51 54.5911 223.73 55.3767 224.296 56.2252H222.599C221.939 55.3139 221.844 54.1669 221.499 53.1613C221.106 51.9986 220.446 50.9617 218.23 50.9617H214.083V56.2252H212.48V45.1324ZM238.347 50.836C238.347 53.9469 236.021 56.5237 231.653 56.5237C227.537 56.5237 224.866 54.4183 224.866 50.8045C224.866 46.8136 228.055 44.8653 231.559 44.8653C234.827 44.8653 238.347 46.6565 238.347 50.836ZM236.76 50.6788C236.76 48.6677 235.455 46.2166 231.559 46.2166C228.872 46.2166 226.437 47.5993 226.437 50.7417C226.437 53.4913 228.416 55.1568 231.685 55.1568C235.487 55.1568 236.76 52.8785 236.76 50.6788ZM253.839 56.2252H252.346C252.346 55.6439 252.425 46.7037 252.425 46.7037L247.884 56.2252H246.407L241.882 46.7037C241.882 46.7037 241.961 55.8167 241.961 56.2252H240.484V45.1324H242.652L247.177 54.5283L251.702 45.1324H253.839V56.2252ZM267.54 56.2252H265.937V46.4836H257.751V56.2252H256.149V45.1324H267.54V56.2252ZM281.912 56.2252H280.089L278.738 53.4913H271.919L270.568 56.2252H268.793L274.543 45.1324H276.224L281.912 56.2252ZM278.062 52.2186L275.344 46.7194L272.579 52.2186H278.062ZM294.906 56.2252H293.319V50.9774H284.819V56.2252H283.216V45.1324H284.803V49.6575H293.304V45.1324H294.906V56.2252ZM297.577 56.2252V45.1324H299.18V53.3656L307.759 46.2323V45.1324H309.361V56.2252H307.759V47.8663L299.18 54.9997V56.2252H297.577ZM323.378 45.1324V56.2252H321.776V51.543H317.455C315.443 51.543 314.674 52.4229 314.281 53.4756C313.951 54.3554 313.763 55.4082 312.961 56.2252H311.076C311.987 55.4867 312.27 54.3554 312.615 53.397C312.961 52.3914 313.417 51.3702 314.658 51.1659C312.631 51.0716 311.72 50.0032 311.72 48.4163C311.72 46.2323 313.103 45.1324 315.208 45.1324H323.378ZM321.776 50.2232V46.4523H315.679C314.391 46.4523 313.37 46.9079 313.37 48.3691C313.37 49.9875 314.893 50.2232 316.229 50.2232H321.776Z" fill="#6C6C7C"/>
<rect x="2.5" y="2.5" width="64" height="64" rx="2.5" stroke="#B4302F" stroke-width="5"/>
<path d="M10.7304 30.2955C10.2985 30.4164 10 30.81 10 31.2585V59.0858C10 59.351 10.1054 59.6054 10.2929 59.7929L11.2071 60.7071C11.3946 60.8946 11.649 61 11.9142 61H23.5C24.0523 61 24.5 60.5523 24.5 60V29C24.5 28.6852 24.3518 28.3889 24.1 28.2L22.8946 27.296C22.6459 27.1094 22.3244 27.0492 22.025 27.133L10.7304 30.2955Z" fill="#8D1A1C"/>
<path d="M10.7304 30.2955C10.2985 30.4164 10 30.81 10 31.2585V58.5C10 59.0523 10.4477 59.5 11 59.5H21.5C22.0523 59.5 22.5 59.0523 22.5 58.5V28.3185C22.5 27.6563 21.868 27.177 21.2304 27.3555L10.7304 30.2955Z" fill="#B42F2D"/>
<path d="M27.83 25.2955C27.3981 25.4164 27.0996 25.81 27.0996 26.2585V59.0858C27.0996 59.351 27.205 59.6054 27.3925 59.7929L28.3067 60.7071C28.4943 60.8946 28.7486 61 29.0138 61H40.5996C41.1519 61 41.5996 60.5523 41.5996 60V24C41.5996 23.6852 41.4514 23.3889 41.1996 23.2L39.9942 22.296C39.7455 22.1094 39.424 22.0492 39.1246 22.133L27.83 25.2955Z" fill="#8D1A1C"/>
<path d="M27.83 25.2955C27.3981 25.4164 27.0996 25.81 27.0996 26.2585V58.5C27.0996 59.0523 27.5473 59.5 28.0996 59.5H38.5996C39.1519 59.5 39.5996 59.0523 39.5996 58.5V23.3185C39.5996 22.6563 38.9676 22.177 38.33 22.3555L27.83 25.2955Z" fill="#B42F2D"/>
<path d="M44.9296 20.2955C44.4978 20.4164 44.1992 20.81 44.1992 21.2585V59.0858C44.1992 59.351 44.3046 59.6054 44.4921 59.7929L45.4063 60.7071C45.5939 60.8946 45.8482 61 46.1134 61H57.6992C58.2515 61 58.6992 60.5523 58.6992 60V19C58.6992 18.6852 58.551 18.3889 58.2992 18.2L57.0938 17.296C56.8451 17.1094 56.5237 17.0492 56.2242 17.133L44.9296 20.2955Z" fill="#8D1A1C"/>
<path d="M44.9296 20.2955C44.4978 20.4164 44.1992 20.81 44.1992 21.2585V58.5C44.1992 59.0523 44.6469 59.5 45.1992 59.5H55.6992C56.2515 59.5 56.6992 59.0523 56.6992 58.5V18.3185C56.6992 17.6563 56.0672 17.177 55.4296 17.3555L44.9296 20.2955Z" fill="#B42F2D"/>
<path d="M11 9C10.4477 9 10 9.44772 10 10V27.1194C10 27.8 10.6651 28.2818 11.3118 28.0696L58.0762 12.7258C58.4869 12.5911 58.7645 12.2078 58.7645 11.7757V10C58.7645 9.44772 58.3168 9 57.7645 9H11Z" fill="#8D1A1C"/>
<path d="M11 9C10.4477 9 10 9.44772 10 10V24.6286C10 25.3065 10.6603 25.7879 11.3058 25.5807L57.6622 10.6934C58.0211 10.5782 58.2645 10.2444 58.2645 9.86748C58.2645 9.38838 57.8761 9 57.397 9H11Z" fill="#B42F2D"/>
</svg>
