<svg width="43" height="43" viewBox="0 0 43 43" fill="none" xmlns="http://www.w3.org/2000/svg">
<rect x="1.54215" y="1.54215" width="39.4792" height="39.4792" rx="1.54215" stroke="#B4302F" stroke-width="3.08431"/>
<path d="M6.61851 18.6891C6.35212 18.7637 6.16797 19.0065 6.16797 19.2831V36.4487C6.16797 36.6123 6.23296 36.7692 6.34864 36.8849L6.91259 37.4489C7.02827 37.5646 7.18517 37.6296 7.34877 37.6296H14.4956C14.8363 37.6296 15.1125 37.3534 15.1125 37.0127V17.89C15.1125 17.6958 15.0211 17.513 14.8657 17.3965L14.1222 16.8388C13.9687 16.7237 13.7704 16.6866 13.5857 16.7383L6.61851 18.6891Z" fill="#8D1A1C"/>
<path d="M6.61851 18.6891C6.35212 18.7637 6.16797 19.0065 6.16797 19.2831V36.0874C6.16797 36.4281 6.44415 36.7043 6.78483 36.7043H13.2619C13.6026 36.7043 13.8787 36.4281 13.8787 36.0874V17.4696C13.8787 17.0611 13.4889 16.7654 13.0956 16.8755L6.61851 18.6891Z" fill="#B42F2D"/>
<path d="M17.1673 15.6032C16.901 15.6778 16.7168 15.9206 16.7168 16.1972V36.4471C16.7168 36.6107 16.7818 36.7676 16.8975 36.8833L17.4614 37.4472C17.5771 37.5629 17.734 37.6279 17.8976 37.6279H25.0444C25.3851 37.6279 25.6613 37.3517 25.6613 37.0111V14.804C25.6613 14.6099 25.5699 14.427 25.4145 14.3105L24.671 13.7529C24.5175 13.6378 24.3193 13.6006 24.1346 13.6524L17.1673 15.6032Z" fill="#8D1A1C"/>
<path d="M17.1673 15.6032C16.901 15.6778 16.7168 15.9206 16.7168 16.1972V36.0858C16.7168 36.4265 16.993 36.7026 17.3337 36.7026H23.8107C24.1514 36.7026 24.4276 36.4265 24.4276 36.0858V14.3836C24.4276 13.9751 24.0377 13.6795 23.6444 13.7896L17.1673 15.6032Z" fill="#B42F2D"/>
<path d="M27.7142 12.5172C27.4478 12.5918 27.2637 12.8346 27.2637 13.1113V36.4455C27.2637 36.6091 27.3287 36.766 27.4443 36.8817L28.0083 37.4456C28.124 37.5613 28.2809 37.6263 28.4445 37.6263H35.5913C35.932 37.6263 36.2082 37.3501 36.2082 37.0094V11.7181C36.2082 11.5239 36.1168 11.3411 35.9614 11.2246L35.2179 10.6669C35.0644 10.5519 34.8661 10.5147 34.6814 10.5664L27.7142 12.5172Z" fill="#8D1A1C"/>
<path d="M27.7142 12.5172C27.4478 12.5918 27.2637 12.8346 27.2637 13.1113V36.0841C27.2637 36.4248 27.5399 36.701 27.8805 36.701H34.3576C34.6983 36.701 34.9744 36.4248 34.9744 36.0841V11.2977C34.9744 10.8892 34.5846 10.5935 34.1913 10.7037L27.7142 12.5172Z" fill="#B42F2D"/>
<path d="M6.78483 5.55078C6.44415 5.55078 6.16797 5.82696 6.16797 6.16764V16.728C6.16797 17.1478 6.57824 17.445 6.97714 17.3141L35.8244 7.8491C36.0777 7.76599 36.2489 7.52956 36.2489 7.26298V6.16764C36.2489 5.82696 35.9727 5.55078 35.6321 5.55078H6.78483Z" fill="#8D1A1C"/>
<path d="M6.78483 5.55078C6.44415 5.55078 6.16797 5.82696 6.16797 6.16764V15.1914C6.16797 15.6096 6.57528 15.9066 6.97345 15.7788L35.569 6.59538C35.7903 6.52429 35.9405 6.31839 35.9405 6.08589C35.9405 5.79036 35.7009 5.55078 35.4054 5.55078H6.78483Z" fill="#B42F2D"/>
</svg>
