<svg width="104" height="21" viewBox="0 0 104 21" fill="none" xmlns="http://www.w3.org/2000/svg">
<path d="M95.1416 20.6067C94.7966 19.7782 94.4669 18.9978 94.1523 18.2657C93.8378 17.5239 93.5283 16.7965 93.2239 16.0836L91.7324 12.5721H90.4236V7.10974H91.6107L93.0718 4.33521C93.4269 3.67048 93.7769 3.00575 94.1219 2.34101C94.477 1.67628 94.8879 0.895944 95.3547 0H103.756C103.015 1.07899 102.285 2.14834 101.564 3.20805C100.844 4.26777 100.113 5.34194 99.3726 6.43056L96.5722 10.549L96.42 7.42766L99.5248 12.8322C100.002 13.6511 100.514 14.5374 101.062 15.4911C101.61 16.4449 102.142 17.3746 102.66 18.2801C103.177 19.1761 103.624 19.9516 103.999 20.6067H95.1416ZM83.4531 20.6067C83.4531 19.5373 83.4531 18.4969 83.4531 17.4853C83.4531 16.4642 83.4531 15.2985 83.4531 13.9883V6.90743C83.4531 5.5298 83.4531 4.31113 83.4531 3.25141C83.4531 2.19169 83.4531 1.10789 83.4531 0H90.9106C90.9106 1.10789 90.9106 2.19169 90.9106 3.25141C90.9106 4.31113 90.9106 5.5298 90.9106 6.90743V13.9883C90.9106 15.2985 90.9106 16.4642 90.9106 17.4853C90.9106 18.4969 90.9106 19.5373 90.9106 20.6067H83.4531Z" fill="#F33607"/>
<path d="M57.6426 20.6067C57.9368 20.0768 58.2818 19.4603 58.6775 18.757C59.0732 18.0537 59.479 17.3312 59.895 16.5894C60.311 15.838 60.7017 15.1395 61.0669 14.494L63.4259 10.2889L66.3937 12.601C65.1356 12.601 64.0449 12.4613 63.1215 12.1819C62.1982 11.8929 61.4322 11.4835 60.8234 10.9536C60.2248 10.4141 59.7733 9.76385 59.4689 9.00278C59.1747 8.24171 59.0275 7.38431 59.0275 6.43056C59.0275 4.74465 59.3877 3.43927 60.1081 2.51442C60.8285 1.57994 61.8634 0.929661 63.2129 0.563577C64.5725 0.187859 66.2009 0 68.0983 0C69.1738 0 70.3051 0 71.4922 0C72.6894 0 73.8258 0 74.9013 0C75.9768 0 76.8798 0 77.6104 0C77.6104 1.10789 77.6104 2.19169 77.6104 3.25141C77.6104 4.31113 77.6104 5.5298 77.6104 6.90743V13.9883C77.6104 15.2985 77.6104 16.4642 77.6104 17.4853C77.6104 18.4969 77.6104 19.5373 77.6104 20.6067H70.2746C70.2746 19.5373 70.2746 18.4969 70.2746 17.4853C70.2746 16.4642 70.2746 15.2985 70.2746 13.9883V8.06349C70.2746 6.68586 70.2746 5.46718 70.2746 4.40746C70.2746 3.34775 70.2746 2.26394 70.2746 1.15606L74.1404 5.31786H68.3113C68.0577 5.31786 67.8345 5.36121 67.6417 5.44791C67.4489 5.52498 67.2815 5.64541 67.1395 5.80918C67.0075 5.97296 66.9061 6.17045 66.8351 6.40166C66.764 6.63287 66.7285 6.8978 66.7285 7.19645C66.7285 7.98642 66.901 8.50183 67.246 8.74267C67.6011 8.98352 68.007 9.10394 68.4635 9.10394H71.6444V13.3524H66.5307L70.7921 10.7513L67.8852 16.5316C67.5605 17.1771 67.2308 17.8322 66.8959 18.4969C66.5611 19.1616 66.206 19.8649 65.8306 20.6067H57.6426Z" fill="#F33607"/>
<path d="M31.9492 20.6067C32.284 19.5084 32.6392 18.3476 33.0146 17.1241C33.39 15.8909 33.7451 14.7301 34.0799 13.6415L36.2411 6.56062C36.6368 5.26969 36.9919 4.11363 37.3064 3.09245C37.621 2.07127 37.9355 1.04045 38.25 0H47.7773C48.1122 1.09825 48.4368 2.15797 48.7514 3.17915C49.0659 4.20034 49.4109 5.32749 49.7863 6.56062L51.9474 13.6415C52.3026 14.7782 52.6628 15.9488 53.028 17.153C53.3933 18.3572 53.7433 19.5084 54.0782 20.6067H46.3772C46.1641 19.6337 45.9459 18.6366 45.7227 17.6154C45.5097 16.5846 45.3017 15.6164 45.0987 14.7108L43.1811 5.86698H42.6941L40.746 14.5952C40.5329 15.5489 40.3097 16.5509 40.0764 17.6009C39.843 18.651 39.6198 19.6529 39.4067 20.6067H31.9492ZM38.4935 17.2541L39.3458 12.0519H47.6251L48.3252 17.2541H38.4935Z" fill="#F33607"/>
<path d="M0 20.6067C0.142047 19.5759 0.279021 18.5258 0.410922 17.4564C0.55297 16.3871 0.705163 15.231 0.867503 13.9883L1.79588 6.96524C1.95822 5.73211 2.11042 4.55197 2.25246 3.42482C2.40466 2.28803 2.55685 1.14642 2.70904 0H10.2578C10.5825 0.867042 10.8869 1.6811 11.171 2.44217C11.4551 3.1936 11.7392 3.94022 12.0233 4.68203L13.6974 9.13284H14.154L15.6759 4.69648C15.9397 3.94504 16.1934 3.20806 16.4369 2.48552C16.6906 1.76298 16.9746 0.934478 17.2892 0H24.7162C24.8786 1.13679 25.0358 2.26876 25.188 3.39591C25.3504 4.52307 25.5178 5.72248 25.6903 6.99414L26.6643 14.0027C26.8368 15.2648 26.9941 16.4208 27.1361 17.4709C27.2883 18.5113 27.4354 19.5566 27.5775 20.6067H20.4852C20.3533 19.5759 20.2265 18.6029 20.1048 17.6877C19.983 16.7628 19.8663 15.8909 19.7547 15.0721L19.2981 11.5895H18.8111L17.8675 15.3177C17.6341 16.2522 17.4008 17.1626 17.1674 18.0489C16.9442 18.9352 16.7311 19.7878 16.5282 20.6067H11.6276C11.4348 20.0479 11.237 19.4747 11.034 18.8871C10.8311 18.2994 10.6282 17.7069 10.4253 17.1096C10.2223 16.5027 10.0143 15.9006 9.80126 15.3033L8.52283 11.5895H8.03582L7.59445 15.0287C7.49299 15.8572 7.38138 16.7387 7.25963 17.6732C7.13787 18.6077 7.01105 19.5855 6.87915 20.6067H0Z" fill="#F33607"/>
</svg>
